<!-- <svg viewBox="0 0 1491 1161" fill="none" xmlns="http://www.w3.org/2000/svg">
<path opacity="0.5" d="M318.343 86.6942C198.405 187.217 179.819 377.298 98.5892 517.527C70.3124 566.322 33.7749 609.992 14.7119 664.123C-29.0536 788.026 31.1802 928.572 111.801 1026.98C150.245 1073.93 195.149 1116.94 249.478 1136.72C291.258 1151.94 336.056 1152.57 380.033 1152.97L1150.5 1160.9C1236.52 1161.77 1332.1 1158.62 1393.95 1092.21C1436.57 1046.48 1453.89 979.692 1468.58 915.944C1486.64 837.613 1503 752.546 1474.91 677.94C1442.82 592.582 1361.67 544.21 1311.26 470.555C1229.45 351.223 1231.33 170.731 1127.14 75.4664C1078.51 31.0041 1014.33 13.5679 951.792 4.84978C833.892 -11.6089 722.215 19.4592 606.433 15.1266C507.464 11.428 400.447 17.8741 318.343 86.6942Z" fill="#FFC727"/>
</svg> -->
<svg viewBox="0 0 2254 1407" fill="none" xmlns="http://www.w3.org/2000/svg">
<path opacity="0.5" d="M481.565 105.063C300.132 226.885 272.016 457.241 149.138 627.182C106.363 686.316 51.092 739.239 22.255 804.839C-43.95 954.995 47.167 1125.32 169.124 1244.58C227.279 1301.48 295.206 1353.6 377.391 1377.57C440.592 1396.02 508.359 1396.78 574.884 1397.26L1740.39 1406.87C1870.51 1407.93 2015.1 1404.11 2108.66 1323.63C2173.13 1268.21 2199.33 1187.27 2221.55 1110.02C2248.87 1015.09 2273.62 911.998 2231.13 821.584C2182.59 718.14 2059.83 659.519 1983.57 570.257C1859.82 425.641 1862.66 206.906 1705.05 91.4564C1631.49 37.5733 1534.4 16.4427 1439.8 5.87736C1261.45 -14.0687 1092.51 23.5822 917.365 18.3316C767.652 13.8494 605.765 21.6613 481.565 105.063Z" fill="#FFC727"/>
</svg>