<svg width="21" height="25" viewBox="0 0 21 25" fill="none" xmlns="http://www.w3.org/2000/svg">
<path d="M1.12028 3.49265H5.69171L7.16863 1.41762C7.36516 1.1415 7.62 0.91739 7.91297 0.763035C8.20594 0.60868 8.52899 0.52832 8.85654 0.52832L12.373 0.52832C12.7006 0.52832 13.0236 0.60868 13.3166 0.763035C13.6096 0.91739 13.8644 1.1415 14.0609 1.41762L15.5379 3.49265H20.1093C20.2026 3.49265 20.292 3.53169 20.3579 3.60118C20.4239 3.67067 20.4609 3.76492 20.4609 3.86319V4.60427C20.4609 4.70255 20.4239 4.79679 20.3579 4.86628C20.292 4.93577 20.2026 4.97481 20.1093 4.97481H19.2785L17.8192 22.2189C17.772 22.7717 17.5302 23.286 17.1414 23.6606C16.7526 24.0351 16.2449 24.2429 15.7181 24.243H5.51149C4.98468 24.2429 4.47696 24.0351 4.08816 23.6606C3.69935 23.286 3.45758 22.7717 3.41039 22.2189L1.95105 4.97481H1.12028C1.02701 4.97481 0.937571 4.93577 0.871624 4.86628C0.805677 4.79679 0.768629 4.70255 0.768629 4.60427V3.86319C0.768629 3.76492 0.805677 3.67067 0.871624 3.60118C0.937571 3.53169 1.02701 3.49265 1.12028 3.49265ZM12.9357 2.30692C12.8699 2.21514 12.7849 2.14063 12.6873 2.08921C12.5897 2.03778 12.4821 2.01084 12.373 2.01048H8.85654C8.74742 2.01084 8.63985 2.03778 8.54225 2.08921C8.44464 2.14063 8.35965 2.21514 8.2939 2.30692L7.44995 3.49265H13.7796L12.9357 2.30692ZM4.81259 22.0845C4.82706 22.2692 4.90703 22.4413 5.03655 22.5667C5.16607 22.692 5.33564 22.7613 5.51149 22.7608H15.7181C15.8939 22.7613 16.0635 22.692 16.193 22.5667C16.3225 22.4413 16.4025 22.2692 16.417 22.0845L17.8675 4.97481H3.36204L4.81259 22.0845Z" fill="black"/>
</svg>
