<svg preserveAspectRatio="xMidYMid meet" viewBox="0 0 700 700" fill="none" xmlns="http://www.w3.org/2000/svg">
<g opacity="0.4">
<path d="M453 218.5C451.53 215.16 449.92 211.84 448.31 208.5C445.1 201.8 441.9 194.98 439.15 187.87C436.305 180.686 433.966 173.311 432.15 165.8C431.69 163.9 431.29 161.98 430.9 160.06C430.51 158.14 430.19 156.06 429.85 154.48C429.17 151.07 428.33 147.74 427.37 144.48C426.421 141.306 425.302 138.185 424.02 135.13C422.818 132.176 421.425 129.303 419.85 126.53C416.909 121.216 413.311 116.294 409.14 111.88C401.06 103.2 390.44 97.05 378.64 93.16C375.7 92.16 372.64 91.38 369.64 90.71C368.12 90.38 366.64 90.09 365.12 89.83L362.41 89.4C361.41 89.23 360.41 89.09 359.41 88.88C351.255 87.3683 343.265 85.0744 335.55 82.03C328.13 78.9691 320.944 75.3695 314.05 71.26C307.49 67.45 301.58 63.87 295.66 61.04C292.726 59.6202 289.722 58.3486 286.66 57.23C285.14 56.66 283.6 56.15 282.05 55.66L279.82 55C279.16 54.81 278.51 54.62 277.82 54.46C275.286 53.8185 272.684 53.4827 270.07 53.46C267.626 53.4712 265.198 53.8556 262.87 54.6C260.592 55.3132 258.486 56.4886 256.683 58.0526C254.879 59.6167 253.418 61.5357 252.39 63.69C251.227 66.1228 250.548 68.7583 250.39 71.45C250.245 74.451 250.545 77.4569 251.28 80.37C253.028 86.8003 256.081 92.8016 260.25 98C264.5 103.482 269.638 108.214 275.45 112C281.426 115.854 287.82 119.018 294.51 121.43C301.26 123.96 308.3 125.94 315.51 127.99C322.72 130.04 330.16 132.18 337.64 135.99C341.589 137.955 345.245 140.463 348.5 143.44C349.34 144.23 350.16 145.06 350.95 145.92C351.74 146.78 352.47 147.72 353.15 148.62C354.51 150.42 355.69 152.21 356.79 154C360.807 160.786 364.297 167.87 367.23 175.19C368.68 178.7 370.08 182.19 371.37 185.69C372.66 189.19 373.97 192.69 375.18 196.11C380.06 209.95 384.41 223.63 389.34 236.45C391.653 242.639 394.407 248.654 397.58 254.45C399.016 257.074 400.69 259.561 402.58 261.88C403.453 262.953 404.41 263.956 405.44 264.88C405.93 265.35 406.44 265.75 406.95 266.17L407.73 266.75C408.02 266.96 408.4 267.18 408.73 267.39C413.999 270.854 420.055 272.938 426.34 273.45C431.1 273.714 435.837 272.622 440 270.3C441.415 269.474 442.754 268.524 444 267.46C449.15 263.18 452.78 256.82 454.74 250C456.638 243.034 457.161 235.766 456.28 228.6C455.647 225.101 454.543 221.703 453 218.5ZM458.33 250.86C456.946 258.621 453.662 265.918 448.77 272.1C447.465 273.69 446.023 275.163 444.46 276.5C442.881 277.887 441.177 279.126 439.37 280.2C435.663 282.397 431.603 283.933 427.37 284.74C423.121 285.557 418.775 285.752 414.47 285.32C410.231 284.896 406.051 284.018 402 282.7C401.49 282.53 401 282.39 400.47 282.19L398.78 281.53C397.681 281.068 396.607 280.551 395.56 279.98C393.505 278.88 391.542 277.616 389.69 276.2C387.89 274.857 386.186 273.39 384.59 271.81C383 270.28 381.54 268.69 380.14 267.08C374.926 260.769 370.475 253.865 366.88 246.51C359.83 232.37 355.24 217.87 351.29 203.59C350.29 200.02 349.39 196.45 348.49 192.9L345.83 182.36C344.92 178.89 344.07 175.43 343.1 172.09C342.13 168.75 341.19 165.45 340.05 162.44C339.48 160.93 338.88 159.49 338.25 158.19C337.94 157.54 337.62 156.94 337.3 156.35C336.98 155.76 336.59 155.17 336.2 154.59C334.469 152.121 332.387 149.918 330.02 148.05C325.02 144.05 318.57 140.78 311.92 137.92C298.56 132.1 283.99 127.51 270.7 119.48C267.362 117.46 264.144 115.25 261.06 112.86C257.956 110.424 255.022 107.778 252.28 104.94C246.534 99.1473 241.837 92.4003 238.4 85C236.607 80.9737 235.405 76.7098 234.83 72.34C234.2 67.6438 234.458 62.871 235.59 58.27C236.793 53.4095 239.019 48.8616 242.12 44.93C245.265 40.9407 249.183 37.6278 253.64 35.19C258.001 32.8277 262.737 31.2376 267.64 30.49C272.369 29.7612 277.177 29.7107 281.92 30.34C283.09 30.48 284.23 30.67 285.38 30.87L288.38 31.49C290.38 31.94 292.38 32.42 294.38 32.98C298.359 34.0818 302.277 35.3902 306.12 36.9C313.76 39.9 320.76 43.47 327.22 46.58C333.233 49.6056 339.448 52.2119 345.82 54.38C351.959 56.4053 358.258 57.9073 364.65 58.87L369.85 59.63C372 59.95 374.11 60.32 376.2 60.79C380.377 61.677 384.492 62.8327 388.52 64.25C396.705 67.0707 404.471 70.9827 411.61 75.88C418.889 80.8699 425.346 86.9629 430.75 93.94C436.077 100.877 440.173 108.677 442.86 117C445.384 124.97 446.755 133.261 446.93 141.62C447.035 145.624 446.914 149.63 446.57 153.62C446.41 155.7 446.22 157.29 446.06 159.08C445.9 160.87 445.79 162.6 445.73 164.36C445.401 171.501 445.786 178.656 446.88 185.72C447.47 189.28 448.16 192.84 449.08 196.36C450 199.88 451.08 203.36 452.27 206.84C453.46 210.32 454.79 213.75 456.07 217.25C456.7 219 457.35 220.75 457.9 222.57C458.503 224.422 458.929 226.327 459.17 228.26C460.017 235.792 459.747 243.407 458.37 250.86H458.33Z" fill="#EBEBEB"/>
<path d="M142.45 432.84L136.04 431.91C133.9 431.59 131.76 431.29 129.62 430.91C127.48 430.53 125.34 430.19 123.19 429.84C121.04 429.49 118.91 429.08 116.76 428.7C108.052 427.164 99.449 425.087 91 422.48C86.655 421.106 82.3915 419.487 78.23 417.63C73.9166 415.678 69.7753 413.367 65.85 410.72C63.8274 409.338 61.875 407.856 60 406.28C59.05 405.46 58.15 404.57 57.23 403.71C56.77 403.27 56.3 402.84 55.85 402.38L54.57 400.94C50.9669 397.006 47.9859 392.544 45.73 387.71C45.16 386.46 44.6 385.21 44.08 383.94C43.56 382.67 43.23 381.32 42.81 380C42.61 379.34 42.39 378.68 42.22 378L41.79 376C41.51 374.64 41.2 373.28 40.99 371.92L40.58 367.82C40.52 367.13 40.43 366.44 40.41 365.76V359.63C40.5 358.3 40.63 356.97 40.75 355.63C40.9849 352.993 41.3756 350.371 41.92 347.78L42.28 345.84L42.76 343.96L43.76 340.21C44.08 338.94 44.47 337.77 44.85 336.59C45.23 335.41 45.59 334.23 46.01 333.03C46.89 330.64 47.72 328.26 48.82 325.85C50.9306 320.799 53.5757 315.988 56.71 311.5C59.9948 306.791 63.8697 302.523 68.24 298.8C72.3556 295.356 76.785 292.306 81.47 289.69C85.88 287.22 90.15 285.12 94.31 283.26C102.64 279.5 110.51 276.18 118.31 272.72C133.835 265.869 148.927 258.074 163.5 249.38L166.25 247.74L168.98 246.05C170.79 244.91 172.62 243.81 174.42 242.64L185.53 235.46C187.45 234.2 189.44 233.03 191.4 231.81C193.36 230.59 195.4 229.51 197.4 228.36C199.4 227.21 201.45 226.15 203.49 225.07C205.53 223.99 207.62 223 209.7 221.99C213.88 219.99 218.127 218.157 222.44 216.49L225.68 215.26L228.97 214.12C231.14 213.33 233.38 212.69 235.58 211.99C240.04 210.7 244.52 209.51 249.09 208.66C253.645 207.747 258.249 207.102 262.88 206.73C272.135 205.865 281.468 206.384 290.57 208.27C292.84 208.72 295.07 209.36 297.3 209.99L300.58 211.1C301.67 211.47 302.72 211.96 303.8 212.38C308.049 214.154 312.115 216.337 315.94 218.9C319.703 221.497 323.221 224.432 326.45 227.67C327.23 228.5 328.03 229.29 328.81 230.16L331.07 232.9C332.544 234.828 333.833 236.89 334.92 239.06C337.144 243.582 338.31 248.551 338.33 253.59C338.285 258.529 337.459 263.43 335.88 268.11C334.391 272.605 332.555 276.978 330.39 281.19C329.39 283.29 328.28 285.32 327.18 287.35L323.8 293.35C319.25 301.23 314.58 308.85 310.46 316.5C308.41 320.31 306.46 324.11 304.84 327.88C303.214 331.458 301.906 335.173 300.93 338.98C300.075 342.6 299.53 346.287 299.3 350C299.042 353.935 298.985 357.88 299.13 361.82L299.25 364.82L299.43 367.9C299.57 369.97 299.68 372.04 299.86 374.15L300.86 387.06C301.699 396.302 301.87 405.593 301.37 414.86C301.037 419.914 300.284 424.931 299.12 429.86C297.882 435.112 295.998 440.191 293.51 444.98C290.966 449.865 287.722 454.353 283.88 458.3C282.84 459.307 281.79 460.307 280.73 461.3C279.58 462.22 278.4 463.12 277.23 463.98C276.06 464.84 274.68 465.54 273.39 466.25C272.1 466.96 270.7 467.52 269.32 468.02C264.093 469.877 258.512 470.519 253 469.9C248.208 469.34 243.505 468.184 239 466.46C234.798 464.879 230.691 463.056 226.7 461C222.77 459.05 218.97 457 215.16 454.95C207.59 450.86 200.09 446.86 192.29 443.53C184.561 440.08 176.411 437.666 168.05 436.35L142.45 432.84ZM193.68 440C201.88 442.7 209.94 445.72 218.07 448.37C222.07 449.73 226.19 450.95 230.24 452.05C234.22 453.094 238.257 453.909 242.33 454.49C246.093 455.063 249.915 455.147 253.7 454.74C256.894 454.404 259.97 453.351 262.7 451.66C265.205 449.989 267.337 447.816 268.96 445.28C270.879 442.437 272.431 439.362 273.58 436.13C275.87 429.71 276.73 422.46 276.89 414.6C277.25 398.85 274.81 381.27 276.05 362.17C276.75 352.6 278.35 342.66 282.5 332.82C284.501 328.236 286.893 323.833 289.65 319.66C292.26 315.66 295.02 311.83 297.83 308.19C303.45 300.93 309.2 294.12 314.44 287.19C317.08 283.71 319.56 280.19 321.8 276.55C324.016 273.016 325.914 269.291 327.47 265.42C328.954 261.778 329.78 257.901 329.91 253.97C329.982 250.244 329.123 246.559 327.41 243.25C326.559 241.584 325.555 240 324.41 238.52L322.5 236.36C321.83 235.65 321.07 234.97 320.36 234.27C317.458 231.545 314.266 229.147 310.84 227.12C303.972 223.159 296.312 220.768 288.41 220.12C284.446 219.745 280.454 219.745 276.49 220.12C272.477 220.464 268.494 221.092 264.57 222C256.62 223.955 248.877 226.675 241.45 230.12C239.58 231.03 237.7 231.85 235.86 232.82L233.09 234.24L230.35 235.73C226.68 237.67 223.1 239.85 219.52 241.99C217.74 243.09 215.98 244.23 214.21 245.35L209 248.85C205.53 251.23 202.08 253.65 198.67 256.15L188 264C186.17 265.35 184.3 266.63 182.45 268L179.66 270L176.83 271.92C161.793 282.235 146.043 291.472 129.7 299.56C125.65 301.56 121.61 303.56 117.59 305.37C113.57 307.18 109.59 309.03 105.83 310.84C98.19 314.44 91.41 317.95 86.48 321.95C84.0362 323.92 81.8372 326.176 79.93 328.67C77.8715 331.418 76.0896 334.362 74.61 337.46C73.77 339.07 73.05 340.86 72.27 342.59C71.9 343.48 71.56 344.41 71.2 345.32C70.84 346.23 70.47 347.16 70.2 348.03C68.9795 351.449 68.007 354.951 67.29 358.51L66.79 361.09L66.52 363.61L66.36 364.88C66.36 365.31 66.36 365.71 66.36 366.12L66.28 368.6C66.28 369.42 66.36 370.22 66.39 371.03V372.26C66.39 372.66 66.51 373.05 66.56 373.45L66.92 375.85C67.14 376.62 67.32 377.4 67.5 378.2C68.3655 381.432 69.6675 384.53 71.37 387.41L72 388.5C72.23 388.87 72.5 389.23 72.75 389.59L74.27 391.8C75.44 393.19 76.49 394.7 77.84 396.02C80.4698 398.857 83.3259 401.476 86.38 403.85C89.5759 406.309 92.9151 408.577 96.38 410.64C103.58 414.899 111.151 418.497 119 421.39C123 422.87 127 424.26 131 425.46C133 426.07 135.07 426.7 137.14 427.22L140.22 428.04L143.33 428.79C151.63 430.79 160.05 432.31 168.53 433.54C177.082 434.974 185.496 437.135 193.68 440Z" fill="#EBEBEB"/>
<path d="M207.27 96.26C204.534 95.5731 201.754 95.072 198.95 94.76C197.61 94.58 196.32 94.48 195.01 94.37C193.7 94.26 192.42 94.2199 191.15 94.1999C188.61 94.0999 186.15 94.1999 183.65 94.1999C173.82 94.5899 164.43 96.0899 155.16 97.5199L151.88 98.0199L150.42 98.23L148.94 98.3499C147.94 98.4399 146.94 98.41 145.88 98.44C144.82 98.47 143.79 98.3499 142.72 98.2699C141.65 98.1899 140.6 98.08 139.51 97.9C138.42 97.72 137.36 97.58 136.27 97.37C134.11 96.92 131.89 96.4499 129.71 95.8399C120.89 93.5199 112.18 90.0699 102.45 87.8399C97.3067 86.631 92.004 86.2462 86.74 86.6999C83.9015 86.9831 81.1058 87.5972 78.41 88.5299C77.0476 89.0105 75.7123 89.5646 74.41 90.19C73.75 90.51 73.09 90.82 72.41 91.19L70.56 92.29C68.1434 93.7744 65.8613 95.4675 63.74 97.3499C62.66 98.2899 61.64 99.42 60.59 100.48C59.54 101.54 58.72 102.76 57.78 103.93C56.84 105.1 56.15 106.33 55.35 107.57C54.94 108.19 54.62 108.82 54.29 109.44L53.29 111.35L52.8 112.35L52.39 113.35L51.58 115.35C51.0315 116.635 50.5574 117.95 50.16 119.29C48.5303 124.48 47.566 129.857 47.29 135.29C47.0379 140.539 47.3261 145.8 48.15 150.99C48.968 156.087 50.3084 161.087 52.15 165.91C52.61 167.11 53.15 168.3 53.6 169.47C54.05 170.64 54.71 171.8 55.27 172.95C55.83 174.1 56.43 175.24 57.06 176.35C57.69 177.46 58.31 178.57 59.06 179.66C61.7587 183.975 64.802 188.065 68.16 191.89C71.4391 195.675 75.0209 199.186 78.87 202.39C82.5991 205.549 86.6168 208.352 90.87 210.76C95.0775 213.129 99.6087 214.871 104.32 215.93C109.152 216.937 114.15 216.82 118.93 215.59C123.737 214.283 128.343 212.325 132.62 209.77C141.151 204.668 149.133 198.699 156.44 191.96C160.1 188.67 163.53 185.24 166.79 181.72C167.092 181.375 167.427 181.06 167.79 180.78L168.65 180.03C169.3 179.59 169.81 179.03 170.49 178.66L171.43 178C171.77 177.8 172.12 177.61 172.43 177.38C173.06 176.94 173.85 176.58 174.51 176.15C177.762 174.375 181.122 172.805 184.57 171.45L190.57 169.08L193.8 167.82L197.16 166.43C199.43 165.51 201.83 164.36 204.27 163.15C206.87 161.81 209.385 160.31 211.8 158.66C214.528 156.778 217.055 154.62 219.34 152.22C221.82 149.605 223.933 146.665 225.62 143.48L226.28 142.27L226.84 141.03C227.2 140.2 227.57 139.37 227.9 138.52C228.499 136.866 228.993 135.176 229.38 133.46L229.91 130.93L230.23 128.48C230.42 126.883 230.524 125.278 230.54 123.67C230.54 123.25 230.54 122.93 230.54 122.44C230.54 121.8 230.54 121.16 230.46 120.53C230.389 119.198 230.194 117.876 229.88 116.58C229.81 116.26 229.74 115.92 229.65 115.58L229.33 114.58C229.11 113.91 228.87 113.26 228.62 112.58C228.066 111.311 227.414 110.087 226.67 108.92C226.29 108.37 225.91 107.82 225.51 107.29C225.31 107.02 225.11 106.75 224.91 106.51L224.28 105.81C223.86 105.36 223.43 104.92 222.99 104.47C222.55 104.02 222.13 103.71 221.69 103.32C221.25 102.93 220.8 102.6 220.36 102.32L219.07 101.44C218.64 101.16 218.19 100.84 217.77 100.61L216.52 99.9199C213.59 98.3435 210.485 97.1151 207.27 96.26Z" fill="#EBEBEB"/>
<path d="M341.24 338.68C340.71 341.726 340.492 344.819 340.59 347.91C340.819 353.542 341.783 359.119 343.46 364.5C344.909 369.758 346.761 374.897 349 379.87C351.279 384.862 354.149 389.563 357.55 393.87C361.098 398.345 365.224 402.33 369.82 405.72C374.975 409.333 380.902 411.692 387.13 412.61C390.441 413.108 393.801 413.178 397.13 412.82C403.218 412.153 408.978 409.72 413.7 405.82C415.685 404.172 417.569 402.406 419.34 400.53C420.254 399.528 421.077 398.447 421.8 397.3C422.475 396.105 423.053 394.857 423.53 393.57C424.429 390.911 425.052 388.166 425.39 385.38C426.179 379.587 426.243 373.719 425.58 367.91C424.953 362.334 423.139 356.956 420.26 352.14C417.467 347.573 413.78 343.617 409.42 340.51C405.1 337.35 400.02 335.09 395.04 333.04C390.06 330.99 385.11 329.15 380.46 326.96C375.81 324.77 371.32 322.32 365.67 320.57C364.157 320.095 362.604 319.76 361.03 319.57C359.199 319.327 357.342 319.357 355.52 319.66C353.067 320.143 350.782 321.256 348.89 322.89C348.417 323.298 347.969 323.736 347.55 324.2C347.16 324.64 346.76 325.1 346.39 325.58C345.738 326.467 345.15 327.4 344.63 328.37C344.154 329.263 343.727 330.181 343.35 331.12C343.03 331.97 342.67 332.91 342.45 333.73L342 335L341.7 336.25C341.52 337.08 341.39 337.86 341.24 338.68Z" fill="#EBEBEB"/>
</g>
<path d="M103.53 357.3L107.4 358.02L108.27 362.1L109.13 358.02L113 357.3L109.15 356.36L108.27 352.51L107.38 356.36L103.53 357.3Z" fill="#DBDBDB"/>
<path d="M284.43 50.6099L288.3 51.3299L289.17 55.4099L290.03 51.3299L293.9 50.6099L290.05 49.6699L289.17 45.8199L288.28 49.6699L284.43 50.6099Z" fill="#DBDBDB"/>
<path d="M300.18 449.39L304.05 450.1L304.92 454.18L305.78 450.1L309.65 449.39L305.8 448.44L304.92 444.59L304.04 448.44L300.18 449.39Z" fill="#DBDBDB"/>
<path d="M431.29 364.78L433.45 365.18L433.94 367.46L434.42 365.18L436.58 364.78L434.43 364.25L433.94 362.1L433.45 364.25L431.29 364.78Z" fill="#DBDBDB"/>
<path d="M401.69 100.11L403.85 100.52L404.33 102.79L404.81 100.52L406.98 100.11L404.82 99.5899L404.33 97.4399L403.84 99.5899L401.69 100.11Z" fill="#DBDBDB"/>
<path d="M442.68 174.9L444.84 175.3L445.32 177.58L445.81 175.3L447.97 174.9L445.81 174.37L445.32 172.22L444.83 174.37L442.68 174.9Z" fill="#DBDBDB"/>
<path d="M58.95 376.06L61.11 376.46L61.59 378.74L62.08 376.46L64.24 376.06L62.09 375.53L61.59 373.38L61.1 375.53L58.95 376.06Z" fill="#DBDBDB"/>
<path d="M417.66 319.91L419.82 320.31L420.31 322.59L420.79 320.31L422.95 319.91L420.8 319.38L420.31 317.23L419.81 319.38L417.66 319.91Z" fill="#DBDBDB"/>
<path d="M122.78 389.21L124.95 389.62L125.43 391.89L125.91 389.62L128.08 389.21L125.92 388.69L125.43 386.54L124.94 388.69L122.78 389.21Z" fill="#DBDBDB"/>
<path d="M80.28 424.29C80.4471 424.29 80.6073 424.356 80.7255 424.475C80.8436 424.593 80.91 424.753 80.91 424.92C80.91 425.087 80.8436 425.247 80.7255 425.366C80.6073 425.484 80.4471 425.55 80.28 425.55C80.1129 425.55 79.9527 425.484 79.8345 425.366C79.7164 425.247 79.65 425.087 79.65 424.92C79.65 424.753 79.7164 424.593 79.8345 424.475C79.9527 424.356 80.1129 424.29 80.28 424.29Z" fill="#DBDBDB"/>
<path d="M373.9 338.88C374.067 338.88 374.227 338.946 374.345 339.065C374.464 339.183 374.53 339.343 374.53 339.51C374.53 339.677 374.464 339.837 374.345 339.955C374.227 340.074 374.067 340.14 373.9 340.14C373.733 340.14 373.573 340.074 373.455 339.955C373.336 339.837 373.27 339.677 373.27 339.51C373.27 339.343 373.336 339.183 373.455 339.065C373.573 338.946 373.733 338.88 373.9 338.88Z" fill="#DBDBDB"/>
<path d="M379.82 249.26C379.972 249.279 380.112 249.353 380.213 249.468C380.315 249.584 380.371 249.732 380.371 249.885C380.371 250.038 380.315 250.186 380.213 250.302C380.112 250.417 379.972 250.491 379.82 250.51C379.668 250.491 379.528 250.417 379.427 250.302C379.325 250.186 379.269 250.038 379.269 249.885C379.269 249.732 379.325 249.584 379.427 249.468C379.528 249.353 379.668 249.279 379.82 249.26Z" fill="#DBDBDB"/>
<path d="M142.46 423.67C142.612 423.689 142.752 423.763 142.853 423.878C142.955 423.993 143.011 424.142 143.011 424.295C143.011 424.448 142.955 424.596 142.853 424.711C142.752 424.826 142.612 424.901 142.46 424.92C142.308 424.901 142.168 424.826 142.067 424.711C141.965 424.596 141.909 424.448 141.909 424.295C141.909 424.142 141.965 423.993 142.067 423.878C142.168 423.763 142.308 423.689 142.46 423.67Z" fill="#DBDBDB"/>
<path d="M116.75 387.34C116.902 387.359 117.042 387.433 117.143 387.549C117.245 387.664 117.301 387.812 117.301 387.965C117.301 388.118 117.245 388.267 117.143 388.382C117.042 388.497 116.902 388.571 116.75 388.59C116.598 388.571 116.458 388.497 116.357 388.382C116.255 388.267 116.199 388.118 116.199 387.965C116.199 387.812 116.255 387.664 116.357 387.549C116.458 387.433 116.598 387.359 116.75 387.34Z" fill="#DBDBDB"/>
<path d="M403.73 347.1C403.882 347.119 404.022 347.193 404.123 347.308C404.225 347.424 404.281 347.572 404.281 347.725C404.281 347.878 404.225 348.026 404.123 348.142C404.022 348.257 403.882 348.331 403.73 348.35C403.578 348.331 403.438 348.257 403.337 348.142C403.235 348.026 403.179 347.878 403.179 347.725C403.179 347.572 403.235 347.424 403.337 347.308C403.438 347.193 403.578 347.119 403.73 347.1Z" fill="#DBDBDB"/>
<path d="M377.5 277.76C377.667 277.76 377.827 277.826 377.945 277.945C378.064 278.063 378.13 278.223 378.13 278.39C378.13 278.557 378.064 278.717 377.945 278.835C377.827 278.954 377.667 279.02 377.5 279.02C377.333 279.02 377.173 278.954 377.055 278.835C376.936 278.717 376.87 278.557 376.87 278.39C376.87 278.223 376.936 278.063 377.055 277.945C377.173 277.826 377.333 277.76 377.5 277.76Z" fill="#DBDBDB"/>
<path d="M368 385.65C368.117 385.65 368.229 385.696 368.311 385.779C368.394 385.861 368.44 385.973 368.44 386.09C368.44 386.207 368.394 386.319 368.311 386.401C368.229 386.484 368.117 386.53 368 386.53C367.883 386.53 367.771 386.484 367.689 386.401C367.606 386.319 367.56 386.207 367.56 386.09C367.56 385.973 367.606 385.861 367.689 385.779C367.771 385.696 367.883 385.65 368 385.65Z" fill="#DBDBDB"/>
<path d="M134.05 111.07C134.157 111.086 134.254 111.14 134.324 111.221C134.394 111.303 134.433 111.407 134.433 111.515C134.433 111.623 134.394 111.727 134.324 111.809C134.254 111.89 134.157 111.944 134.05 111.96C133.943 111.944 133.846 111.89 133.776 111.809C133.706 111.727 133.667 111.623 133.667 111.515C133.667 111.407 133.706 111.303 133.776 111.221C133.846 111.14 133.943 111.086 134.05 111.07Z" fill="#DBDBDB"/>
<path d="M135.17 391.45C135.277 391.466 135.374 391.52 135.444 391.601C135.514 391.683 135.553 391.787 135.553 391.895C135.553 392.003 135.514 392.107 135.444 392.189C135.374 392.27 135.277 392.324 135.17 392.34C135.063 392.324 134.966 392.27 134.896 392.189C134.826 392.107 134.787 392.003 134.787 391.895C134.787 391.787 134.826 391.683 134.896 391.601C134.966 391.52 135.063 391.466 135.17 391.45Z" fill="#DBDBDB"/>
<path d="M56.86 254.47L60.73 255.18L61.59 259.26L62.46 255.18L66.33 254.46L62.48 253.52L61.59 249.67L60.71 253.52L56.86 254.47Z" fill="#DBDBDB"/>
<path d="M424.86 154.8L428.73 155.51L429.59 159.59L430.45 155.51L434.32 154.8L430.47 153.85L429.59 150L428.71 153.85L424.86 154.8Z" fill="#DBDBDB"/>
<path d="M260.52 69.4L262.69 69.8L263.17 72.08L263.65 69.8L265.82 69.4L263.66 68.88L263.17 66.72L262.68 68.88L260.52 69.4Z" fill="#DBDBDB"/>
<path d="M61.59 145.55L63.76 145.95L64.24 148.23L64.72 145.95L66.89 145.55L64.73 145.02L64.24 142.87L63.75 145.02L61.59 145.55Z" fill="#DBDBDB"/>
<path d="M101.31 141.77C101.462 141.789 101.602 141.863 101.703 141.978C101.805 142.094 101.861 142.242 101.861 142.395C101.861 142.548 101.805 142.696 101.703 142.812C101.602 142.927 101.462 143.001 101.31 143.02C101.158 143.001 101.018 142.927 100.917 142.812C100.815 142.696 100.759 142.548 100.759 142.395C100.759 142.242 100.815 142.094 100.917 141.978C101.018 141.863 101.158 141.789 101.31 141.77Z" fill="#DBDBDB"/>
<path d="M53.65 366.31C53.8021 366.329 53.942 366.403 54.0434 366.519C54.1448 366.634 54.2008 366.782 54.2008 366.935C54.2008 367.088 54.1448 367.237 54.0434 367.352C53.942 367.467 53.8021 367.541 53.65 367.56C53.4978 367.541 53.358 367.467 53.2566 367.352C53.1552 367.237 53.0992 367.088 53.0992 366.935C53.0992 366.782 53.1552 366.634 53.2566 366.519C53.358 366.403 53.4978 366.329 53.65 366.31Z" fill="#DBDBDB"/>
<path d="M105.07 344.68C105.237 344.68 105.397 344.746 105.515 344.864C105.634 344.983 105.7 345.143 105.7 345.31C105.7 345.477 105.634 345.637 105.515 345.755C105.397 345.874 105.237 345.94 105.07 345.94C104.903 345.94 104.743 345.874 104.625 345.755C104.506 345.637 104.44 345.477 104.44 345.31C104.44 345.143 104.506 344.983 104.625 344.864C104.743 344.746 104.903 344.68 105.07 344.68Z" fill="#DBDBDB"/>
<path d="M54.25 186C54.4022 186.019 54.542 186.093 54.6434 186.208C54.7448 186.324 54.8008 186.472 54.8008 186.625C54.8008 186.778 54.7448 186.926 54.6434 187.042C54.542 187.157 54.4022 187.231 54.25 187.25C54.0979 187.231 53.958 187.157 53.8566 187.042C53.7552 186.926 53.6992 186.778 53.6992 186.625C53.6992 186.472 53.7552 186.324 53.8566 186.208C53.958 186.093 54.0979 186.019 54.25 186Z" fill="#DBDBDB"/>
<path d="M187.15 59.5699C187.317 59.5699 187.477 59.6363 187.595 59.7545C187.714 59.8726 187.78 60.0329 187.78 60.1999C187.78 60.367 187.714 60.5273 187.595 60.6454C187.477 60.7636 187.317 60.8299 187.15 60.8299C186.983 60.8299 186.823 60.7636 186.705 60.6454C186.586 60.5273 186.52 60.367 186.52 60.1999C186.52 60.0329 186.586 59.8726 186.705 59.7545C186.823 59.6363 186.983 59.5699 187.15 59.5699Z" fill="#DBDBDB"/>
<path d="M161.54 397.93C161.657 397.93 161.769 397.976 161.851 398.059C161.934 398.141 161.98 398.253 161.98 398.37C161.98 398.487 161.934 398.599 161.851 398.681C161.769 398.764 161.657 398.81 161.54 398.81C161.423 398.81 161.311 398.764 161.229 398.681C161.146 398.599 161.1 398.487 161.1 398.37C161.1 398.253 161.146 398.141 161.229 398.059C161.311 397.976 161.423 397.93 161.54 397.93Z" fill="#DBDBDB"/>
<path d="M436.45 250.52L438.62 250.92L439.1 253.2L439.58 250.92L441.74 250.52L439.59 250L439.1 247.84L438.61 250L436.45 250.52Z" fill="#DBDBDB"/>
<path d="M318 76.84C318.117 76.84 318.229 76.8863 318.311 76.9688C318.394 77.0514 318.44 77.1633 318.44 77.28C318.44 77.3967 318.394 77.5086 318.311 77.5911C318.229 77.6736 318.117 77.72 318 77.72C317.883 77.72 317.771 77.6736 317.689 77.5911C317.606 77.5086 317.56 77.3967 317.56 77.28C317.56 77.1633 317.606 77.0514 317.689 76.9688C317.771 76.8863 317.883 76.84 318 76.84Z" fill="#DBDBDB"/>
<path d="M223.69 439.08C223.797 439.096 223.894 439.15 223.964 439.232C224.034 439.313 224.073 439.417 224.073 439.525C224.073 439.633 224.034 439.737 223.964 439.819C223.894 439.9 223.797 439.954 223.69 439.97C223.583 439.954 223.486 439.9 223.416 439.819C223.346 439.737 223.307 439.633 223.307 439.525C223.307 439.417 223.346 439.313 223.416 439.232C223.486 439.15 223.583 439.096 223.69 439.08Z" fill="#DBDBDB"/>
<path d="M411.62 172.26C411.737 172.26 411.849 172.306 411.931 172.389C412.014 172.471 412.06 172.583 412.06 172.7C412.06 172.817 412.014 172.929 411.931 173.011C411.849 173.094 411.737 173.14 411.62 173.14C411.503 173.14 411.391 173.094 411.309 173.011C411.226 172.929 411.18 172.817 411.18 172.7C411.18 172.583 411.226 172.471 411.309 172.389C411.391 172.306 411.503 172.26 411.62 172.26Z" fill="#DBDBDB"/>
<path d="M338.88 60.38C338.987 60.396 339.084 60.4497 339.154 60.5314C339.224 60.6131 339.263 60.7172 339.263 60.825C339.263 60.9328 339.224 61.0369 339.154 61.1186C339.084 61.2003 338.987 61.254 338.88 61.27C338.773 61.254 338.676 61.2003 338.606 61.1186C338.536 61.0369 338.497 60.9328 338.497 60.825C338.497 60.7172 338.536 60.6131 338.606 60.5314C338.676 60.4497 338.773 60.396 338.88 60.38Z" fill="#DBDBDB"/>
<path d="M304.92 84.0599C305.221 84.0874 305.5 84.2262 305.704 84.4491C305.907 84.6721 306.02 84.963 306.02 85.2649C306.02 85.5668 305.907 85.8578 305.704 86.0808C305.5 86.3037 305.221 86.4425 304.92 86.4699C304.619 86.4425 304.34 86.3037 304.136 86.0808C303.933 85.8578 303.82 85.5668 303.82 85.2649C303.82 84.963 303.933 84.6721 304.136 84.4491C304.34 84.2262 304.619 84.0874 304.92 84.0599Z" fill="#DBDBDB"/>
<path d="M412.05 206.06C412.368 206.06 412.673 206.186 412.899 206.411C413.124 206.636 413.25 206.942 413.25 207.26C413.25 207.578 413.124 207.883 412.899 208.108C412.673 208.334 412.368 208.46 412.05 208.46C411.732 208.46 411.427 208.334 411.201 208.108C410.976 207.883 410.85 207.578 410.85 207.26C410.85 206.942 410.976 206.636 411.201 206.411C411.427 206.186 411.732 206.06 412.05 206.06Z" fill="#DBDBDB"/>
<path d="M90.36 324.92C90.6783 324.92 90.9835 325.046 91.2085 325.272C91.4336 325.497 91.56 325.802 91.56 326.12C91.56 326.438 91.4336 326.744 91.2085 326.969C90.9835 327.194 90.6783 327.32 90.36 327.32C90.0417 327.32 89.7365 327.194 89.5115 326.969C89.2864 326.744 89.16 326.438 89.16 326.12C89.16 325.802 89.2864 325.497 89.5115 325.272C89.7365 325.046 90.0417 324.92 90.36 324.92Z" fill="#DBDBDB"/>
<path d="M150.97 90.29L153.13 90.69L153.61 92.97L154.09 90.69L156.26 90.29L154.1 89.77L153.61 87.61L153.12 89.77L150.97 90.29Z" fill="#DBDBDB"/>
<path d="M338.68 421.1C338.832 421.119 338.972 421.194 339.073 421.309C339.175 421.424 339.231 421.572 339.231 421.725C339.231 421.878 339.175 422.027 339.073 422.142C338.972 422.257 338.832 422.331 338.68 422.35C338.528 422.331 338.388 422.257 338.287 422.142C338.185 422.027 338.129 421.878 338.129 421.725C338.129 421.572 338.185 421.424 338.287 421.309C338.388 421.194 338.528 421.119 338.68 421.1Z" fill="#DBDBDB"/>
<path d="M297.13 415.19C297.282 415.209 297.422 415.283 297.523 415.398C297.625 415.513 297.681 415.662 297.681 415.815C297.681 415.968 297.625 416.116 297.523 416.231C297.422 416.347 297.282 416.421 297.13 416.44C296.978 416.421 296.838 416.347 296.737 416.231C296.635 416.116 296.579 415.968 296.579 415.815C296.579 415.662 296.635 415.513 296.737 415.398C296.838 415.283 296.978 415.209 297.13 415.19Z" fill="#DBDBDB"/>
<path d="M384.61 377.63L386.77 378.03L387.25 380.31L387.74 378.03L389.9 377.63L387.75 377.1L387.25 374.95L386.76 377.1L384.61 377.63Z" fill="#DBDBDB"/>
<path d="M404.33 432.26L406.49 432.66L406.98 434.94L407.46 432.66L409.62 432.25L407.47 431.73L406.98 429.58L406.48 431.73L404.33 432.26Z" fill="#DBDBDB"/>
<path d="M389.9 406.41C390.017 406.41 390.129 406.456 390.211 406.539C390.294 406.621 390.34 406.733 390.34 406.85C390.34 406.967 390.294 407.079 390.211 407.161C390.129 407.244 390.017 407.29 389.9 407.29C389.783 407.29 389.671 407.244 389.589 407.161C389.506 407.079 389.46 406.967 389.46 406.85C389.46 406.733 389.506 406.621 389.589 406.539C389.671 406.456 389.783 406.41 389.9 406.41Z" fill="#DBDBDB"/>
<path d="M77.64 267.96L79.8 268.36L80.28 270.64L80.76 268.36L82.93 267.96L80.77 267.43L80.28 265.28L79.79 267.43L77.64 267.96Z" fill="#DBDBDB"/>
<path d="M52.64 314.36C52.7922 314.379 52.932 314.453 53.0334 314.568C53.1348 314.684 53.1908 314.832 53.1908 314.985C53.1908 315.138 53.1348 315.286 53.0334 315.402C52.932 315.517 52.7922 315.591 52.64 315.61C52.4879 315.591 52.348 315.517 52.2466 315.402C52.1452 315.286 52.0892 315.138 52.0892 314.985C52.0892 314.832 52.1452 314.684 52.2466 314.568C52.348 314.453 52.4879 314.379 52.64 314.36Z" fill="#DBDBDB"/>
<path d="M90.36 197C90.4666 197.016 90.5638 197.07 90.6341 197.151C90.7044 197.233 90.7431 197.337 90.7431 197.445C90.7431 197.553 90.7044 197.657 90.6341 197.739C90.5638 197.82 90.4666 197.874 90.36 197.89C90.2534 197.874 90.1562 197.82 90.0859 197.739C90.0156 197.657 89.9769 197.553 89.9769 197.445C89.9769 197.337 90.0156 197.233 90.0859 197.151C90.1562 197.07 90.2534 197.016 90.36 197Z" fill="#DBDBDB"/>
<path d="M119.4 75.63C119.701 75.6574 119.98 75.7962 120.184 76.0192C120.387 76.2421 120.5 76.5331 120.5 76.835C120.5 77.1369 120.387 77.4279 120.184 77.6508C119.98 77.8738 119.701 78.0126 119.4 78.04C119.099 78.0126 118.82 77.8738 118.616 77.6508C118.413 77.4279 118.3 77.1369 118.3 76.835C118.3 76.5331 118.413 76.2421 118.616 76.0192C118.82 75.7962 119.099 75.6574 119.4 75.63Z" fill="#DBDBDB"/>
<path d="M403.22 250C403.286 282.364 393.052 313.909 374 340.07C358.592 361.285 337.998 378.192 314.188 389.173C290.379 400.155 264.15 404.843 238.01 402.789C211.871 400.736 186.695 392.01 164.892 377.446C143.089 362.882 125.387 342.967 113.481 319.606C101.574 296.245 95.861 270.22 96.8876 244.02C97.9141 217.821 105.646 192.322 119.344 169.965C133.042 147.607 152.247 129.138 175.123 116.325C197.999 103.511 223.78 96.7818 250 96.78C254.2 96.78 258.363 96.9467 262.49 97.28C286.215 99.186 309.163 106.629 329.49 119.01C345.191 128.562 359.053 140.849 370.42 155.29C391.699 182.27 403.255 215.639 403.22 250Z" fill="#FFC727"/>
<g opacity="0.1">
<path d="M283.09 322.32C281.16 327.47 284.37 327.68 284.59 329.83C284.81 331.98 284.59 336.05 278.37 342.28C272.15 348.51 261.84 347.21 259.7 349.79C257.56 352.37 253.9 363.31 248.75 366.95C243.6 370.59 242.75 368.46 235.45 369.95C228.15 371.44 222.57 380.89 220.45 385.4C218.33 389.91 220.88 397.4 215.73 397.63C210.58 397.86 208.22 386.69 203.5 380.68C198.78 374.67 197.28 369.31 195.78 362.22C194.28 355.13 196.63 340.33 195.78 334.54C194.93 328.75 179.47 318.45 173.89 311.36C168.31 304.27 160.58 290.12 161.01 285.36C161.663 280.779 163.95 276.588 167.45 273.56C170.02 271.62 168.95 270.56 169.38 268.83C169.81 267.1 171.96 266.69 172.38 264.54C172.8 262.39 171.1 255.96 168.95 254.89C166.8 253.82 165.3 257.46 164.02 256.82C162.74 256.18 158.87 251.67 157.36 251.24C155.85 250.81 156.29 254.03 154.14 249.95C151.99 245.87 150.93 235.57 149.21 233.86C147.49 232.15 146.21 236.86 142.13 233.86C138.05 230.86 136.33 225.06 134.62 224.2C132.91 223.34 130.54 224.41 128.77 220.98C127 217.55 130.32 211.32 128.77 211.98C127.22 212.64 123.89 217.56 123.03 212.83C122.17 208.1 127.32 192.23 126.46 183.65C125.6 175.07 128.61 166.05 134.62 158.76C134.62 158.76 135.47 154.04 136.33 151.03C137.19 148.02 155.65 136.03 157.79 132.58C158.69 131.14 158.99 128.89 159.31 126.47C185.586 107.127 217.372 96.7209 250 96.78C254.2 96.78 258.363 96.9467 262.49 97.28C262.63 97.48 262.77 97.67 262.91 97.85C264.77 100.21 266.78 101.71 272.22 103.72C277.66 105.73 278.94 108.29 277.79 110.44C276.64 112.59 274.79 113.01 272.64 113.16C270.49 113.31 268.49 112.16 266.21 113.59C263.93 115.02 261.63 122.74 258.62 123.17C255.61 123.6 250.33 116.31 249.18 114.17C248.03 112.03 251.76 107.45 250 105.3C248.24 103.15 245.18 103.58 240.31 103.15C235.44 102.72 224.15 104.59 224.57 106.45C224.99 108.31 241.17 106.16 241.57 109.88C241.97 113.6 229.7 119.88 227.57 119.32C225.44 118.76 222.57 115.03 219.41 114.6C216.25 114.17 213.69 116.75 211.71 117.03C209.73 117.31 207.4 114.89 204.39 115.46C201.38 116.03 200.67 118.6 199.1 119.61C197.53 120.62 193.8 120.61 193.38 122.9C192.96 125.19 198.1 126.48 199.38 127.9C200.66 129.32 197.81 134.19 199.1 135.19C200.39 136.19 208.4 129.19 210.4 127.47C212.4 125.75 214.12 118.31 218.4 118.47C222.68 118.63 224.13 125.91 225.55 126.63C226.97 127.35 230.13 124.91 234.86 125.91C239.59 126.91 242.86 137.22 243.72 140.36C244.58 143.5 246.59 146.66 244.87 147.95C243.15 149.24 235.43 147.09 234.43 145.08C233.43 143.07 239.58 140.08 239.15 139.36C238.72 138.64 235.15 137.64 233.28 138.76C231.41 139.88 230.56 142.22 228.56 142.76C226.56 143.3 221.26 137.32 219.83 139.03C218.4 140.74 221.26 146.19 222.69 147.48C224.12 148.77 229.42 149.48 229.85 150.91C230.28 152.34 226.27 155.48 221.4 155.2C216.53 154.92 212.54 151.2 210.67 152.77C208.8 154.34 209.82 158.49 208.53 159.92C207.24 161.35 200.23 160.35 196.8 164.07C193.37 167.79 191.8 173.37 188.36 176.52C184.92 179.67 183.36 175.66 178.77 180.09C174.18 184.52 173.48 194.4 173.34 197.83C173.2 201.26 173.34 203.98 172.19 203.55C171.04 203.12 169.47 200.12 169.04 198.26C168.61 196.4 170.04 193.26 170.04 192.11C170.04 190.96 163.45 185.11 159.59 184.53C155.73 183.95 152.29 187.1 149.44 189.39C146.59 191.68 141.44 191.25 139.57 193.11C137.7 194.97 136.27 211.43 137.7 215.29C139.13 219.15 140.99 219.15 145.57 217.15C150.15 215.15 147.57 211.28 150.29 212.15C151.511 212.607 152.564 213.427 153.305 214.5C154.047 215.572 154.443 216.846 154.44 218.15C154.44 220.44 149.01 225.87 149.72 227.45C150.43 229.03 155.16 227.16 157.45 227.88C159.74 228.6 160.88 230.02 160.17 235.88C159.46 241.74 159.88 246.32 163.31 248.25C166.74 250.18 168.68 245.46 170.18 246.11C171.68 246.76 173.83 250.18 175.97 249.97C178.11 249.76 177.05 247.82 181.12 246.54C185.19 245.26 183.7 244.39 184.56 241.82C185.42 239.25 187.99 237.09 190.78 238.38C193.57 239.67 191.64 241.6 191.85 243.75C192.06 245.9 197 246.11 200.85 247.39C204.7 248.67 206.85 247.39 214.58 249.97C222.31 252.55 222.73 260.27 225.95 261.56C229.17 262.85 239.9 260.7 247.63 266.28C255.36 271.86 253.21 282.16 257.07 285.16C260.93 288.16 275.31 292.25 280.89 293.32C286.47 294.39 287.33 290.53 291.83 291.6C296.33 292.67 298.92 293.96 300.42 300.19C301.79 305.69 285 317.17 283.09 322.32Z" fill="black"/>
<path d="M167.78 212.59C167.92 213.8 171.5 214.31 175.78 216.74C180.06 219.17 181.64 226.32 183.93 226.18C186.22 226.04 185.51 222.75 186.37 221.89C187.23 221.03 188.65 219.17 186.37 217.31C184.09 215.45 181.85 211.44 177.67 210.87C173.49 210.3 172.77 208.58 170.91 208.73C170.436 208.736 169.968 208.846 169.541 209.052C169.114 209.259 168.738 209.557 168.439 209.925C168.14 210.294 167.926 210.724 167.812 211.184C167.698 211.645 167.687 212.125 167.78 212.59Z" fill="black"/>
<path d="M191.38 224.61C190.75 226.36 191.38 227.61 195.96 228.76C200.54 229.91 204.83 227.61 203.4 226.68C201.97 225.75 199.82 226.18 200.68 224.61C201.54 223.04 201.25 220.74 197.53 221.17C193.81 221.6 192 223 191.38 224.61Z" fill="black"/>
<path d="M207.41 225.09C205.84 225.32 204.97 228.04 206.55 229.76C208.13 231.48 208.12 231.19 209.98 229.76C211.84 228.33 214.7 227.61 213.98 226.18C213.26 224.75 209 224.87 207.41 225.09Z" fill="black"/>
<path d="M219.85 230.94C220.55 228.79 224.14 230.94 225.72 233.19C227.3 235.44 226.58 238.77 225.72 241.19C224.86 243.61 224.29 246.48 222.28 245.34C220.27 244.2 222.43 240.76 222.14 238.76C221.85 236.76 219.28 232.69 219.85 230.94Z" fill="black"/>
<path d="M281.51 111.59C280.76 113.38 284.23 114.02 286.23 115.16C288.23 116.3 289.81 117.02 290.95 115.16C292.09 113.3 290.53 111.16 288.95 110.73C287.37 110.3 282.23 109.87 281.51 111.59Z" fill="black"/>
<path d="M308.55 128.32C309.87 129.72 312.13 129.47 313.7 131.47C315.27 133.47 314.7 136.91 316.7 137.91C318.7 138.91 320.13 137.91 320.27 136.48C320.41 135.05 317.41 131.48 317.7 130.76C317.99 130.04 321.85 131.76 322.7 133.9C323.55 136.04 321.84 139.05 323.84 139.63C325.84 140.21 325.41 137.63 326.27 137.05C327.13 136.47 328.99 136.77 328.85 135.05C328.71 133.33 326.41 129.61 324.56 128.32C322.71 127.03 321.26 125.61 318.12 124.89C314.98 124.17 311.97 124.75 310.39 126.04C308.81 127.33 307.74 127.47 308.55 128.32Z" fill="black"/>
<path d="M370.45 155.29C370.36 155.868 370.074 156.398 369.64 156.79C366.64 158.94 363.06 151.5 358.91 150.07C354.76 148.64 352.91 143.35 352.04 144.49C351.17 145.63 351.47 147.21 350.18 149.07C348.89 150.93 347.04 150.5 346.18 154.07C345.32 157.64 350.18 164.22 349.04 166.37C347.9 168.52 346.47 167.8 344.17 167.66C341.87 167.52 342.31 169.52 339.31 168.66C336.31 167.8 338.88 164.08 334.16 159.66C329.44 155.24 327.86 154.36 328.87 152.36C329.88 150.36 328.44 147.5 330.58 147.21C332.72 146.92 334.45 150.07 335.88 150.93C337.31 151.79 339.17 149.21 339.31 146.93C339.45 144.65 334.31 141.5 332.44 139.72C330.57 137.94 330.44 131.48 331.16 130.19C331.88 128.9 334.02 129.33 334.59 126.19C334.92 124.34 332 121.25 329.52 119.02C345.22 128.569 359.082 140.853 370.45 155.29Z" fill="black"/>
<path d="M391.81 283.55C392.24 278.97 389.96 278.68 392.24 270.24C394.52 261.8 389.81 252.79 388.1 250.93C386.39 249.07 382.66 249.64 379.65 251.5C376.64 253.36 378.8 254.79 376.79 255.5C374.78 256.21 372.79 255.07 370.93 255.21C369.07 255.35 367.35 260.08 363.35 259.93C359.35 259.78 356.77 254.07 353.76 249.99C350.75 245.91 344.6 243.34 342.6 238.33C340.6 233.32 344.46 225.6 343.6 219.73C342.74 213.86 338.88 215.15 338.16 211.86C337.44 208.57 338.74 210.15 339.74 207C340.74 203.85 338.59 202.14 340.6 196.7C342.61 191.26 346.18 188.54 345.32 186.11C344.46 183.68 341.74 179.68 341.6 176.82C341.46 173.96 344.32 174.1 349.75 170.09C355.18 166.08 356.62 166.37 360.75 167.8C363.725 168.904 366.785 169.763 369.9 170.37C372.34 170.8 375.63 177.1 376.63 176.81C377.63 176.52 377.78 174.67 378.21 171.95C378.478 170.767 379.099 169.693 379.99 168.87C396.145 194.762 404.204 224.885 403.137 255.385C402.07 285.884 391.925 315.371 374 340.07C388.55 317.8 391.38 288.13 391.81 283.55Z" fill="black"/>
</g>
<path opacity="0.1" d="M368.7 346.89C352.354 366.921 331.205 382.49 307.222 392.148C283.24 401.805 257.204 405.238 231.538 402.126C205.871 399.013 181.41 389.458 160.431 374.348C139.452 359.238 122.637 339.065 111.552 315.708C100.467 292.351 95.4721 266.569 97.0324 240.762C98.5928 214.955 106.658 189.963 120.476 168.111C134.295 146.26 153.418 128.26 176.065 115.788C198.711 103.316 224.146 96.7772 250 96.78C254.2 96.78 258.363 96.9467 262.49 97.28C263.63 97.37 264.77 97.47 265.9 97.6C244.245 99.9574 223.435 107.321 205.116 119.109C186.798 130.897 171.474 146.786 160.356 165.519C149.239 184.252 142.632 205.314 141.06 227.041C139.487 248.767 142.992 270.562 151.297 290.7C159.601 310.838 172.477 328.768 188.907 343.071C205.337 357.374 224.87 367.658 245.96 373.109C267.051 378.56 289.12 379.028 310.423 374.478C331.726 369.927 351.678 360.482 368.7 346.89Z" fill="black"/>
<path opacity="0.3" d="M403.22 250C403.286 282.364 393.052 313.909 374 340.07C359.633 359.802 340.781 375.836 319 386.85C337.987 375.996 354.459 361.242 367.33 343.56C385.367 318.725 395.58 289.073 396.664 258.399C397.747 227.724 389.65 197.425 373.41 171.38C370.458 166.646 367.246 162.079 363.79 157.7C352.36 143.179 338.424 130.821 322.64 121.21C302.178 108.754 279.079 101.271 255.2 99.36C251.07 99.02 246.87 98.85 242.65 98.85C230.181 98.8409 217.757 100.345 205.65 103.33C220.032 98.9809 234.975 96.7739 250 96.78C254.2 96.78 258.363 96.9467 262.49 97.28C300.842 100.405 336.613 117.851 362.689 146.148C388.764 174.446 403.234 211.521 403.22 250Z" fill="white"/>
<path d="M182.965 218.905C184.101 213.636 176.952 207.624 166.997 205.477C157.041 203.33 148.05 205.861 146.913 211.131C145.777 216.4 152.926 222.412 162.881 224.559C172.837 226.706 181.828 224.175 182.965 218.905Z" fill="#FF9CBD"/>
<path d="M337.109 224.583C347.064 222.436 354.213 216.424 353.077 211.155C351.94 205.886 342.949 203.355 332.994 205.502C323.038 207.649 315.889 213.661 317.026 218.93C318.162 224.199 327.153 226.73 337.109 224.583Z" fill="#FF9CBD"/>
<path d="M227.34 200.94C234.34 213.04 250.34 215.71 262.52 210.61C266.665 208.748 270.185 205.731 272.66 201.92C271.66 206.63 268.24 210.73 264 213.39C251.48 220.98 230.61 216.65 227.34 200.94Z" fill="#263238"/>
<path d="M209 162.92C199.246 161.485 189.314 163.874 181.28 169.59C178.545 171.519 176.05 173.768 173.85 176.29C174.279 174.569 174.981 172.928 175.93 171.43C182.38 160.73 198.28 155.74 209 162.92Z" fill="#263238"/>
<path d="M291 162.92C301.72 155.74 317.62 160.73 324.07 171.43C325.019 172.928 325.721 174.569 326.15 176.29C323.95 173.768 321.455 171.519 318.72 169.59C310.686 163.874 300.754 161.485 291 162.92Z" fill="#263238"/>
<path d="M284.65 199.21C292.4 203.72 302.54 204.92 310.28 200.03C313.333 198.023 315.957 195.429 318 192.4C321.23 196.68 327.09 197.4 332.11 196.67C330.119 197.823 327.883 198.489 325.585 198.612C323.288 198.735 320.993 198.313 318.89 197.38C318.219 197.069 317.585 196.683 317 196.23L319.54 195.87C316.897 200.436 312.713 203.91 307.74 205.67C299.69 208.27 290.01 205.83 284.66 199.21H284.65Z" fill="#263238"/>
<path d="M215.35 199.21C210 205.83 200.35 208.27 192.27 205.67C187.299 203.907 183.116 200.433 180.47 195.87L183.01 196.23C182.425 196.683 181.791 197.069 181.12 197.38C179.017 198.313 176.722 198.735 174.425 198.612C172.127 198.489 169.891 197.823 167.9 196.67C172.9 197.38 178.78 196.67 182.01 192.4L183.31 194.14C191 204.56 204.57 205.54 215.31 199.21H215.35Z" fill="#263238"/>
<path d="M357.51 141.01L360.44 140.37V140.39L357.51 141.01Z" fill="#263238"/>
<path d="M366.3 139.17L372.19 138.06L372.2 138.15L366.31 139.22L366.3 139.17Z" fill="#263238"/>
<path d="M378.09 137.07L384.01 136.21L384.03 136.36L378.11 137.19L378.09 137.07Z" fill="#263238"/>
<path d="M389.96 135.48L395.92 134.91L395.94 135.13L389.98 135.67L389.96 135.48Z" fill="#263238"/>
<path d="M401.9 134.53L407.88 134.37L407.89 134.66L401.91 134.79L401.9 134.53Z" fill="#263238"/>
<path d="M413.88 134.46L419.86 134.88L419.82 135.24L413.86 134.78L413.88 134.46Z" fill="#263238"/>
<path d="M425.8 135.71C427.773 136.065 429.726 136.525 431.65 137.09L431.53 137.49C429.622 136.926 427.686 136.462 425.73 136.1L425.8 135.71Z" fill="#263238"/>
<path d="M437.28 139.2C439.112 140.046 440.843 141.096 442.44 142.33L442.13 142.72C440.584 141.503 438.907 140.463 437.13 139.62L437.28 139.2Z" fill="#263238"/>
<path d="M446.56 146.75L447.31 148.07C447.573 148.502 447.804 148.953 448 149.42C448.406 150.348 448.724 151.312 448.95 152.3L448.45 152.42C448.225 151.462 447.917 150.525 447.53 149.62C447.337 149.169 447.113 148.731 446.86 148.31L446.13 147.03L446.56 146.75Z" fill="#263238"/>
<path d="M449.41 158.32C449.26 160.328 448.901 162.316 448.34 164.25L447.82 164.1C448.374 162.202 448.726 160.252 448.87 158.28L449.41 158.32Z" fill="#263238"/>
<path d="M446.28 169.9L443.57 175.26L443.07 174.98L445.77 169.68L446.28 169.9Z" fill="#263238"/>
<path d="M440.4 180.37L436.92 185.25L436.44 184.89L439.92 180.04L440.4 180.37Z" fill="#263238"/>
<path d="M433.19 189.94L429.26 194.47L428.81 194.06L432.72 189.55L433.19 189.94Z" fill="#263238"/>
<path d="M425.19 198.86L420.98 203.12L420.53 202.67L424.74 198.42L425.19 198.86Z" fill="#263238"/>
<path d="M416.67 207.28L412.26 211.33L411.81 210.83L416.22 206.8L416.67 207.28Z" fill="#263238"/>
<path d="M407.77 215.29L403.2 219.16L402.76 218.64L407.32 214.78L407.77 215.29Z" fill="#263238"/>
<path d="M398.57 222.96L393.88 226.69L393.45 226.13L398.13 222.42L398.57 222.96Z" fill="#263238"/>
<path d="M389.14 230.34L384.36 233.94L383.92 233.34L388.71 229.77L389.14 230.34Z" fill="#263238"/>
<path d="M379.52 237.47L374.65 240.94L374.21 240.32L379.09 236.86L379.52 237.47Z" fill="#263238"/>
<path d="M369.73 244.36L364.78 247.72L364.34 247.07L369.3 243.72L369.73 244.36Z" fill="#263238"/>
<path d="M359.8 251.03L354.78 254.3L354.34 253.62L359.36 250.37L359.8 251.03Z" fill="#263238"/>
<path d="M349.73 257.51L344.65 260.68L344.22 259.98L349.3 256.82L349.73 257.51Z" fill="#263238"/>
<path d="M339.55 263.8L334.41 266.88L333.98 266.15L339.11 263.09L339.55 263.8Z" fill="#263238"/>
<path d="M329.25 269.92L324.07 272.92L323.63 272.15L328.82 269.18L329.25 269.92Z" fill="#263238"/>
<path d="M318.86 275.87L313.63 278.78L313.2 277.99L318.43 275.1L318.86 275.87Z" fill="#263238"/>
<path d="M308.38 281.65L303.11 284.48L302.67 283.67L307.95 280.85L308.38 281.65Z" fill="#263238"/>
<path d="M297.81 287.27L292.5 290.02L292.06 289.18L297.38 286.44L297.81 287.27Z" fill="#263238"/>
<path d="M287.16 292.74L281.8 295.41L281.38 294.55L286.73 291.88L287.16 292.74Z" fill="#263238"/>
<path d="M276.43 298.05L271.04 300.65L270.61 299.75L276 297.17L276.43 298.05Z" fill="#263238"/>
<path d="M265.62 303.21L260.19 305.72L259.78 304.83L265.2 302.31L265.62 303.21Z" fill="#263238"/>
<path d="M254.73 308.19L249.26 310.63L248.88 309.75L254.34 307.31L254.73 308.19Z" fill="#263238"/>
<path d="M243.78 313.02L238.27 315.38L237.91 314.51L243.4 312.15L243.78 313.02Z" fill="#263238"/>
<path d="M232.75 317.69L227.21 319.96L226.86 319.12L232.39 316.84L232.75 317.69Z" fill="#263238"/>
<path d="M221.65 322.19L216.07 324.37L215.75 323.54L221.32 321.35L221.65 322.19Z" fill="#263238"/>
<path d="M210.48 326.51L204.87 328.61L204.57 327.8L210.17 325.69L210.48 326.51Z" fill="#263238"/>
<path d="M199.25 330.65L193.6 332.65L193.32 331.86L198.96 329.85L199.25 330.65Z" fill="#263238"/>
<path d="M187.94 334.6L182.26 336.5L182 335.72L187.67 333.81L187.94 334.6Z" fill="#263238"/>
<path d="M176.56 338.34L170.85 340.12L170.61 339.36L176.32 337.57L176.56 338.34Z" fill="#263238"/>
<path d="M165.11 341.85L159.36 343.51L159.15 342.77L164.89 341.1L165.11 341.85Z" fill="#263238"/>
<path d="M153.59 345.11L147.8 346.64L147.61 345.92L153.39 344.38L153.59 345.11Z" fill="#263238"/>
<path d="M141.99 348.1L136.16 349.48L136 348.77L141.81 347.38L141.99 348.1Z" fill="#263238"/>
<path d="M130.31 350.77L124.44 351.98L124.31 351.29L130.16 350.08L130.31 350.77Z" fill="#263238"/>
<path d="M118.56 353.08L112.65 354.07L112.54 353.4L118.43 352.4L118.56 353.08Z" fill="#263238"/>
<path d="M106.72 354.94L100.77 355.68L100.7 355.03L106.63 354.29L106.72 354.94Z" fill="#263238"/>
<path d="M94.81 356.26L88.82 356.67L88.79 356.04L94.75 355.62L94.81 356.26Z" fill="#263238"/>
<path d="M82.83 356.86L76.83 356.8L76.85 356.19L82.82 356.24L82.83 356.86Z" fill="#263238"/>
<path d="M70.83 356.43L64.87 355.68L64.97 355.1L70.89 355.84L70.83 356.43Z" fill="#263238"/>
<path d="M59 354.41C57.0565 353.875 55.152 353.206 53.3 352.41L53.52 351.9C55.3483 352.665 57.2258 353.306 59.14 353.82L59 354.41Z" fill="#263238"/>
<path d="M48 349.54C46.3375 348.38 44.8549 346.982 43.6 345.39L44.02 345.06C45.247 346.599 46.6962 347.947 48.32 349.06L48 349.54Z" fill="#263238"/>
<path d="M40.81 340C40.2159 338.057 39.9324 336.032 39.97 334H40.49C40.4508 335.971 40.7276 337.936 41.31 339.82L40.81 340Z" fill="#263238"/>
<path d="M40.77 328.07C41.2603 326.124 41.8988 324.218 42.68 322.37L43.11 322.54C42.35 324.373 41.7315 326.262 41.26 328.19L40.77 328.07Z" fill="#263238"/>
<path d="M45.29 316.96L48.39 311.83L48.72 312.04L45.67 317.17L45.29 316.96Z" fill="#263238"/>
<path d="M51.83 306.92L55.53 302.21L55.78 302.41L52.12 307.13L51.83 306.92Z" fill="#263238"/>
<path d="M59.42 297.66L63.49 293.26L63.67 293.44L59.64 297.86L59.42 297.66Z" fill="#263238"/>
<path d="M67.68 288.99L71.99 284.84L72.12 284.98L67.84 289.15L67.68 288.99Z" fill="#263238"/>
<path d="M76.39 280.79L80.88 276.82L80.95 276.92L76.49 280.9L76.39 280.79Z" fill="#263238"/>
<path d="M85.44 272.95L90.06 269.16L90.09 269.2L85.49 273.02L85.44 272.95Z" fill="#263238"/>
<path d="M94.82 265.39L97.19 263.55L94.83 265.4L94.82 265.39Z" fill="#263238"/>
<path d="M383.64 130.08L384.91 122.98C385.085 122.008 384.867 121.007 384.305 120.195C383.743 119.383 382.881 118.828 381.91 118.65C380.938 118.475 379.937 118.693 379.125 119.255C378.313 119.817 377.758 120.679 377.58 121.65L376.31 128.75C376.135 129.722 376.353 130.724 376.915 131.535C377.477 132.347 378.339 132.902 379.31 133.08C380.282 133.255 381.283 133.037 382.095 132.475C382.907 131.913 383.462 131.051 383.64 130.08Z" fill="#DBDBDB"/>
<path d="M469.64 131.72L468.64 124.58C468.494 123.6 467.966 122.718 467.172 122.125C466.377 121.533 465.381 121.28 464.4 121.42C463.915 121.49 463.448 121.655 463.026 121.905C462.604 122.156 462.236 122.487 461.943 122.88C461.649 123.273 461.436 123.719 461.316 124.195C461.195 124.67 461.169 125.165 461.24 125.65L462.24 132.79C462.31 133.275 462.475 133.742 462.725 134.164C462.976 134.586 463.307 134.954 463.7 135.247C464.093 135.541 464.539 135.754 465.015 135.874C465.49 135.995 465.985 136.021 466.47 135.95C467.451 135.809 468.336 135.284 468.93 134.491C469.525 133.698 469.78 132.701 469.64 131.72Z" fill="#DBDBDB"/>
<path d="M395.92 104L398.75 101.36C399.109 101.026 399.399 100.623 399.602 100.177C399.806 99.7303 399.919 99.2479 399.936 98.7574C399.953 98.2669 399.872 97.7779 399.7 97.3185C399.527 96.859 399.266 96.4382 398.93 96.08C398.596 95.7208 398.193 95.4312 397.747 95.2277C397.3 95.0242 396.818 94.9109 396.327 94.8941C395.837 94.8774 395.348 94.9577 394.888 95.1303C394.429 95.3029 394.008 95.5645 393.65 95.9L390.82 98.54C390.461 98.8745 390.171 99.2766 389.968 99.7232C389.764 100.17 389.651 100.652 389.634 101.143C389.617 101.633 389.698 102.122 389.87 102.582C390.043 103.041 390.304 103.462 390.64 103.82C390.974 104.179 391.377 104.469 391.823 104.672C392.27 104.876 392.752 104.989 393.243 105.006C393.733 105.023 394.222 104.942 394.682 104.77C395.141 104.597 395.562 104.336 395.92 104Z" fill="#DBDBDB"/>
<path d="M399.88 162.86L397.24 160C396.906 159.641 396.503 159.351 396.057 159.148C395.61 158.944 395.128 158.831 394.637 158.814C394.147 158.797 393.658 158.878 393.198 159.05C392.739 159.223 392.318 159.485 391.96 159.82C391.601 160.155 391.311 160.557 391.108 161.003C390.904 161.45 390.791 161.932 390.774 162.423C390.757 162.913 390.838 163.402 391.01 163.862C391.183 164.321 391.444 164.742 391.78 165.1L394.42 167.93C394.754 168.289 395.157 168.579 395.603 168.782C396.05 168.986 396.532 169.099 397.023 169.116C397.513 169.133 398.002 169.052 398.462 168.88C398.921 168.707 399.342 168.446 399.7 168.11C400.416 167.436 400.837 166.505 400.871 165.522C400.905 164.539 400.548 163.582 399.88 162.86Z" fill="#DBDBDB"/>
<path d="M437.71 176.08L441.36 174.77C442.287 174.431 443.043 173.74 443.463 172.847C443.882 171.953 443.932 170.93 443.6 170C443.262 169.068 442.567 168.308 441.669 167.888C440.771 167.468 439.742 167.422 438.81 167.76L435.17 169.08C434.709 169.246 434.285 169.502 433.923 169.833C433.561 170.163 433.267 170.562 433.059 171.006C432.851 171.45 432.732 171.93 432.71 172.42C432.688 172.91 432.763 173.399 432.93 173.86C433.097 174.32 433.354 174.743 433.685 175.104C434.016 175.464 434.415 175.756 434.859 175.962C435.303 176.169 435.784 176.285 436.273 176.305C436.762 176.326 437.25 176.249 437.71 176.08Z" fill="#DBDBDB"/>
<path d="M439.053 172.552C461.175 163.749 471.971 138.679 463.168 116.557C454.365 94.4357 429.295 83.639 407.173 92.4423C385.052 101.246 374.255 126.315 383.058 148.437C391.861 170.559 416.931 181.355 439.053 172.552Z" fill="#DBDBDB"/>
<path opacity="0.2" d="M456.38 136.13C457.644 137.768 458.345 139.771 458.38 141.84C458.448 143.963 457.937 146.065 456.9 147.92C455.854 149.849 454.107 151.302 452.02 151.98C450.023 152.603 447.871 152.504 445.94 151.7C447.848 151.752 449.744 151.38 451.49 150.61C452.297 150.238 453.031 149.727 453.66 149.1C454.3 148.488 454.84 147.779 455.26 147C455.48 146.6 455.69 146.19 455.88 145.78C456.07 145.37 456.23 144.93 456.35 144.49C456.635 143.62 456.827 142.721 456.92 141.81C457.115 139.9 456.931 137.969 456.38 136.13Z" fill="black"/>
<path opacity="0.2" d="M445.09 147C444.112 145.933 443.538 144.556 443.47 143.11C443.382 141.617 443.729 140.13 444.47 138.83C444.842 138.148 445.345 137.546 445.951 137.061C446.557 136.575 447.253 136.214 448 136C449.407 135.586 450.919 135.733 452.22 136.41C450.935 136.491 449.68 136.831 448.53 137.41C447.514 137.948 446.682 138.776 446.14 139.79C444.91 141.981 444.536 144.55 445.09 147Z" fill="black"/>
<path opacity="0.2" d="M437.12 157.06C437.657 157.943 437.856 158.991 437.68 160.01C437.514 161.07 437.029 162.053 436.29 162.83C435.915 163.235 435.462 163.561 434.959 163.788C434.456 164.014 433.912 164.138 433.36 164.15C432.319 164.181 431.304 163.824 430.51 163.15C431.416 163.292 432.341 163.272 433.24 163.09C434.027 162.901 434.74 162.483 435.29 161.89C435.875 161.275 436.334 160.551 436.64 159.76C436.955 158.895 437.118 157.981 437.12 157.06Z" fill="black"/>
<path opacity="0.2" d="M431.25 161.64C430.808 161.073 430.607 160.354 430.69 159.64C430.801 158.883 431.151 158.182 431.69 157.64C431.961 157.346 432.29 157.112 432.657 156.953C433.024 156.795 433.42 156.715 433.82 156.72C434.195 156.717 434.566 156.792 434.91 156.94C435.254 157.088 435.564 157.306 435.82 157.58C435.203 157.56 434.586 157.63 433.99 157.79C433.506 157.939 433.07 158.215 432.73 158.59C431.916 159.417 431.396 160.489 431.25 161.64Z" fill="black"/>
<path opacity="0.2" d="M397 110.28C397.382 110.909 397.524 111.655 397.4 112.38C397.28 113.133 396.931 113.832 396.4 114.38C396.135 114.669 395.813 114.901 395.456 115.062C395.099 115.224 394.712 115.312 394.32 115.32C393.589 115.335 392.878 115.082 392.32 114.61C392.958 114.727 393.612 114.727 394.25 114.61C394.811 114.479 395.319 114.183 395.71 113.76C396.144 113.331 396.484 112.817 396.71 112.25C396.924 111.616 397.023 110.949 397 110.28Z" fill="black"/>
<path opacity="0.2" d="M392.85 113.54C392.69 113.336 392.572 113.101 392.505 112.85C392.438 112.599 392.423 112.337 392.46 112.08C392.523 111.539 392.762 111.033 393.14 110.64C393.331 110.431 393.565 110.265 393.825 110.153C394.085 110.041 394.367 109.985 394.65 109.99C394.911 109.99 395.17 110.044 395.409 110.149C395.648 110.254 395.863 110.408 396.04 110.6C395.602 110.583 395.163 110.633 394.74 110.75C394.398 110.857 394.09 111.054 393.85 111.32C393.278 111.928 392.926 112.709 392.85 113.54Z" fill="black"/>
<path opacity="0.2" d="M398.62 148.37C399.135 148.444 399.63 148.621 400.075 148.891C400.52 149.161 400.906 149.518 401.21 149.94C401.54 150.397 401.775 150.916 401.902 151.465C402.03 152.015 402.046 152.584 401.95 153.14C401.846 153.712 401.611 154.252 401.264 154.719C400.918 155.185 400.468 155.566 399.95 155.83C399.035 156.33 397.977 156.503 396.95 156.32C397.7 155.822 398.403 155.256 399.05 154.63C399.569 154.149 399.919 153.515 400.05 152.82C400.177 152.097 400.118 151.354 399.88 150.66C399.59 149.832 399.164 149.058 398.62 148.37Z" fill="black"/>
<path opacity="0.2" d="M396.63 154.86C396.241 154.862 395.858 154.773 395.51 154.599C395.163 154.426 394.861 154.172 394.63 153.86C394.372 153.534 394.186 153.157 394.084 152.753C393.982 152.35 393.967 151.93 394.04 151.52C394.106 151.09 394.276 150.683 394.536 150.335C394.796 149.986 395.137 149.706 395.53 149.52C395.863 149.355 396.225 149.258 396.596 149.234C396.967 149.21 397.339 149.259 397.69 149.38C397.234 149.794 396.806 150.239 396.41 150.71C396.142 151.024 395.963 151.404 395.89 151.81C395.806 152.239 395.806 152.681 395.89 153.11C396.045 153.728 396.294 154.318 396.63 154.86Z" fill="black"/>
<path opacity="0.2" d="M443.48 98.3C443.816 98.6968 444.068 99.1573 444.221 99.654C444.374 100.151 444.424 100.673 444.37 101.19C444.315 101.751 444.148 102.295 443.878 102.79C443.608 103.284 443.242 103.72 442.8 104.07C442.348 104.431 441.818 104.682 441.253 104.805C440.687 104.928 440.101 104.92 439.54 104.78C438.534 104.551 437.637 103.982 437 103.17C437.887 103.304 438.785 103.347 439.68 103.3C440.388 103.281 441.071 103.035 441.63 102.6C442.203 102.143 442.651 101.548 442.93 100.87C443.255 100.05 443.441 99.1813 443.48 98.3Z" fill="black"/>
<path opacity="0.2" d="M437.68 101.83C437.396 101.584 437.172 101.275 437.027 100.928C436.881 100.581 436.817 100.205 436.84 99.83C436.869 99.4069 436.987 98.9947 437.187 98.6206C437.387 98.2466 437.664 97.9192 438 97.66C438.337 97.3919 438.734 97.2084 439.157 97.1249C439.579 97.0414 440.016 97.0603 440.43 97.18C441.153 97.381 441.767 97.8589 442.14 98.51C441.521 98.521 440.903 98.5711 440.29 98.66C439.882 98.7132 439.498 98.8795 439.18 99.14C438.833 99.4138 438.544 99.7537 438.33 100.14C438.034 100.67 437.815 101.239 437.68 101.83Z" fill="black"/>
<path d="M396 142.91C396.11 144.68 393.47 146.29 390.11 146.49C386.75 146.69 383.94 145.42 383.83 143.64C383.72 141.86 386.36 140.26 389.72 140.05C393.08 139.84 395.85 141.13 396 142.91Z" fill="#FF9CBD"/>
<path d="M438.63 131C439.46 132.58 442.54 132.58 445.52 131C448.5 129.42 450.24 126.88 449.41 125.31C448.58 123.74 445.49 123.73 442.51 125.31C439.53 126.89 437.8 129.39 438.63 131Z" fill="#FF9CBD"/>
<path d="M408.48 133.23C411.77 136.49 417.13 135.91 420.55 133.23C421.702 132.265 422.55 130.987 422.99 129.55C423.012 131.19 422.382 132.773 421.24 133.95C417.93 137.46 410.96 137.95 408.48 133.27V133.23Z" fill="#263238"/>
<path d="M399.25 122.77C396.01 123.16 393.052 124.804 391.01 127.35C390.316 128.211 389.725 129.151 389.25 130.15C389.245 129.565 389.326 128.982 389.49 128.42C390.61 124.42 395.2 121.47 399.25 122.77Z" fill="#263238"/>
<path d="M425.36 115.46C428.14 112.25 433.62 112.46 436.63 115.23C437.069 115.618 437.444 116.074 437.74 116.58C436.804 115.965 435.796 115.464 434.74 115.09C431.671 113.983 428.292 114.116 425.32 115.46H425.36Z" fill="#263238"/>
<path d="M426.57 127.58C428.004 128.005 429.525 128.043 430.979 127.692C432.432 127.341 433.768 126.612 434.85 125.58C435.585 124.861 436.254 124.078 436.85 123.24C436.73 128.24 430.27 130.24 426.58 127.56L426.57 127.58Z" fill="#263238"/>
<path d="M404.51 133.75C402.72 137.93 396.17 139.58 393.51 135.39C394.45 135.804 395.424 136.138 396.42 136.39C397.883 136.701 399.402 136.622 400.825 136.163C402.248 135.703 403.525 134.878 404.53 133.77L404.51 133.75Z" fill="#263238"/>
<path opacity="0.1" d="M453.84 162.74C450.855 165.766 447.442 168.336 443.71 170.37C443.829 170.837 443.85 171.324 443.77 171.8C443.679 172.473 443.405 173.109 442.979 173.638C442.552 174.167 441.989 174.569 441.35 174.8L437.71 176.12C437.302 176.266 436.873 176.34 436.44 176.34C436.073 176.338 435.709 176.281 435.36 176.17C434.444 175.899 433.669 175.282 433.2 174.45C427.443 175.821 421.465 175.995 415.638 174.963C409.81 173.931 404.256 171.714 399.32 168.45C398.582 168.975 397.679 169.215 396.778 169.125C395.877 169.035 395.039 168.621 394.42 167.96L391.77 165.13C391.296 164.621 390.974 163.99 390.84 163.308C390.705 162.626 390.764 161.92 391.01 161.27C384.067 153.537 380.159 143.551 380.01 133.16H380C379.782 133.16 379.564 133.14 379.35 133.1C378.381 132.918 377.523 132.361 376.962 131.55C376.4 130.74 376.18 129.741 376.35 128.77L377.63 121.67C377.783 120.805 378.235 120.021 378.908 119.456C379.581 118.891 380.431 118.581 381.31 118.58C381.528 118.585 381.745 118.605 381.96 118.64L382.33 118.73C384.142 113.306 387.019 108.299 390.79 104C390.735 103.955 390.685 103.905 390.64 103.85C390.304 103.492 390.043 103.071 389.87 102.612C389.698 102.152 389.617 101.663 389.634 101.173C389.651 100.682 389.764 100.2 389.968 99.7532C390.171 99.3066 390.461 98.9045 390.82 98.57L393.65 95.93C394.342 95.2845 395.254 94.9269 396.2 94.93H396.64C397.516 95.0353 398.327 95.446 398.93 96.09C399.074 96.2413 399.205 96.4053 399.32 96.58C406.185 92.0187 414.218 89.5296 422.46 89.41C395.82 97.71 385.19 120.41 392.46 144.29C397.52 160.96 416.56 171.12 434.69 169.29C437.096 169.051 439.476 168.595 441.8 167.93C447.256 166.379 452.282 163.593 456.49 159.79C455.658 160.818 454.773 161.803 453.84 162.74Z" fill="black"/>
<path opacity="0.3" d="M469.67 132.26C469.672 133.158 469.349 134.026 468.76 134.704C468.172 135.382 467.359 135.825 466.47 135.95C466.34 135.96 466.21 135.96 466.08 135.95C465.97 137.31 465.79 138.67 465.55 140.04C464.263 147.297 461.133 154.101 456.46 159.8C476.32 120.4 445.89 94.3901 425.65 89.4601C427.326 89.5743 428.995 89.7745 430.65 90.0601C438.722 91.5009 446.216 95.215 452.251 100.766C458.286 106.318 462.612 113.476 464.72 121.4C465.641 121.363 466.543 121.669 467.252 122.258C467.961 122.847 468.427 123.678 468.56 124.59L469.56 131.73C469.606 131.905 469.643 132.082 469.67 132.26Z" fill="white"/>
</svg>
