<svg width="25" height="26" viewBox="0 0 25 26" fill="none" xmlns="http://www.w3.org/2000/svg">
<path d="M23.2964 3.27892L21.5832 1.44502C21.0127 0.833888 20.2646 0.52832 19.5165 0.52832C18.7683 0.52832 18.0202 0.833888 17.4493 1.44453L1.35501 18.6727L0.774963 24.257C0.701886 24.9601 1.21936 25.5604 1.86198 25.5604C1.90263 25.5604 1.94328 25.558 1.98484 25.5531L7.19797 24.9366L23.2968 7.70354C24.4382 6.48176 24.4382 4.5007 23.2964 3.27892ZM6.52703 23.4425L2.27806 23.9465L2.75124 19.3914L14.8039 6.48958L18.5843 10.5363L6.52703 23.4425ZM22.2632 6.59763L19.6174 9.42988L15.837 5.38318L18.4829 2.55093C18.7587 2.25563 19.126 2.09283 19.5165 2.09283C19.907 2.09283 20.2737 2.25563 20.55 2.55093L22.2632 4.38483C22.8328 4.99499 22.8328 5.98747 22.2632 6.59763Z" fill="black"/>
</svg>
