<svg width="36" height="37" viewBox="0 0 36 37" fill="none" xmlns="http://www.w3.org/2000/svg">
<path fill-rule="evenodd" clip-rule="evenodd" d="M35.6226 22.9738C35.3938 22.8829 35.1326 22.9397 34.9626 23.1177L32.4001 25.811V9.81311H32.4031L34.8481 7.1733C35.073 6.93024 35.0582 6.55042 34.8148 6.32549L34.8143 6.32494L33.9343 5.50597L35.1571 4.18606C35.3817 3.94273 35.3666 3.56318 35.1233 3.33853L32.4833 0.893701C32.2402 0.668773 31.8606 0.683328 31.6357 0.926657L27.3697 5.53261H6.60004C6.59811 3.87654 5.25613 2.53466 3.59995 2.53274H3.00009C1.3439 2.53466 0.00192261 3.87654 0 5.53261V31.3307C0 31.6619 0.268616 31.9305 0.600128 31.9305H9.6828L8.42267 33.4435C8.21091 33.6984 8.24551 34.0765 8.50012 34.2883L11.2668 36.5917C11.5214 36.8037 11.8998 36.7691 12.1119 36.5145L12.1122 36.5142L15.1831 32.825C15.3951 32.5696 15.5316 32.2595 15.5767 31.9305H26.571L22.965 35.717C22.7368 35.957 22.7464 36.3368 22.9864 36.565C23.0979 36.671 23.246 36.7304 23.4001 36.7301H35.3999C35.7314 36.7301 36 36.4615 36 36.1303V23.5313C36 23.2857 35.8506 23.0649 35.6226 22.9738ZM33.5597 6.79245L32.3998 8.047V7.16458L33.1197 6.38461L33.5597 6.79245ZM31.2 6.69413V6.68562H31.2071L32.2385 5.57223L30.4763 3.94198L24.3635 10.5476L26.1257 12.1778L31.2 6.69413ZM24.9732 12.7451L23.593 13.1478L23.8877 11.7402L24.9732 12.7451ZM33.8683 3.81008L32.107 2.18066L31.2915 3.06142L33.0532 4.6925L33.8683 3.81008ZM3.00049 3.73264H3.60034C4.5946 3.73264 5.40045 4.53843 5.40045 5.53262V28.3465C4.88409 27.9494 4.25156 27.733 3.60034 27.7308H3.00049C2.349 27.733 1.71674 27.9494 1.20038 28.3465V5.53262C1.20038 4.53843 2.00623 3.73264 3.00049 3.73264ZM3.60034 28.9307H3.00049C2.00623 28.9307 1.20038 29.7368 1.20038 30.7307H5.40045C5.40045 29.7368 4.5946 28.9307 3.60034 28.9307ZM14.2611 32.0576L13.8771 32.5185L12.0328 30.9832L12.4162 30.5219C12.6282 30.2673 13.0064 30.2327 13.261 30.4447C13.2613 30.4447 13.2613 30.445 13.2616 30.445L14.1836 31.2106C14.4385 31.4224 14.4734 31.8006 14.2616 32.0554L14.2611 32.056V32.0576ZM9.72949 33.7503L11.5741 35.2855L13.1094 33.4408L11.2651 31.9053L9.72949 33.7503ZM15.3247 30.7307C15.225 30.5645 15.099 30.416 14.9515 30.2904L14.0294 29.5231C13.2654 28.887 12.1305 28.9906 11.4944 29.7546L10.6803 30.7307H6.60022V6.73256H26.2597L23.0756 10.1732C23.03 10.2246 22.9937 10.2839 22.9688 10.3479C22.9616 10.3652 22.9561 10.3814 22.9501 10.3995C22.9479 10.4064 22.9451 10.4133 22.9424 10.4203C22.938 10.4315 22.9336 10.4429 22.9308 10.4547L22.2145 13.8792C22.147 14.2035 22.3552 14.5213 22.6795 14.5888C22.7759 14.6089 22.8756 14.6051 22.9698 14.5776L26.33 13.5985C26.3384 13.5959 26.346 13.592 26.3536 13.5883C26.3602 13.585 26.3668 13.5817 26.3737 13.5793C26.3888 13.5738 26.4044 13.5661 26.4207 13.5581C26.4879 13.5276 26.5489 13.4845 26.6006 13.4315L31.2003 8.46085V27.0709L27.7143 30.7307H15.3247ZM24.7997 35.5301H34.8V25.031L24.7997 35.5301ZM28.8005 34.3303C28.5577 34.3303 28.3388 34.1842 28.246 33.9601C28.1532 33.736 28.2045 33.4778 28.3762 33.3062L32.5763 29.1067C32.6886 28.9941 32.8413 28.9309 33.0003 28.9309C33.3316 28.9309 33.6005 29.1992 33.6005 29.5307V33.7305C33.6005 34.0617 33.3318 34.3303 33.0003 34.3303H28.8005ZM32.4003 33.1304V30.9789L30.2486 33.1304H32.4003ZM22.2001 23.5312H26.3999C26.7314 23.5312 27 23.7998 27 24.131C27 24.4625 26.7314 24.7311 26.4001 24.7311H9.60013C9.26862 24.7311 9 24.4625 9 24.131C9 23.7998 9.26862 23.5312 9.60013 23.5312H13.7999V16.9316C13.8005 16.7726 13.8634 16.6199 13.9752 16.5068L17.5751 12.9071C17.8094 12.6728 18.1892 12.6728 18.4235 12.9071L22.0235 16.5068C22.1358 16.6196 22.1992 16.7723 22.2001 16.9316V23.5312ZM20.1521 16.3316L18.0004 14.1801L15.8488 16.3316H20.1521ZM14.9999 17.5315H21.0001V23.5313H14.9999V17.5315ZM17.3997 10.3323H18.6V11.5322H17.3997V10.3323ZM18.6 25.931H17.3997V27.1309H18.6V25.931Z" fill="black"/>
</svg>
