<svg width="16" height="18" viewBox="0 0 16 18" fill="none" xmlns="http://www.w3.org/2000/svg">
<path fill-rule="evenodd" clip-rule="evenodd" d="M5 0.550537H11C13.761 0.550537 16 2.93806 16 5.88221V12.2802C16 15.2244 13.761 17.6119 11 17.6119H5C2.239 17.6119 0 15.2244 0 12.2802V5.88221C0 2.93806 2.239 0.550537 5 0.550537ZM11 16.0124C12.93 16.0124 14.5 14.3383 14.5 12.2802V5.88221C14.5 3.82419 12.93 2.15004 11 2.15004H5C3.07 2.15004 1.5 3.82419 1.5 5.88221V12.2802C1.5 14.3383 3.07 16.0124 5 16.0124H11ZM4 9.08122C4 6.72569 5.791 4.81588 8 4.81588C10.209 4.81588 12 6.72569 12 9.08122C12 11.4368 10.209 13.3466 8 13.3466C5.791 13.3466 4 11.4368 4 9.08122ZM5.5 9.08122C5.5 10.5506 6.622 11.7471 8 11.7471C9.378 11.7471 10.5 10.5506 10.5 9.08122C10.5 7.61074 9.378 6.41538 8 6.41538C6.622 6.41538 5.5 7.61074 5.5 9.08122ZM12.833 4.49575C12.833 4.80952 12.5944 5.06388 12.3 5.06388C12.0057 5.06388 11.767 4.80952 11.767 4.49575C11.767 4.18198 12.0057 3.92763 12.3 3.92763C12.5944 3.92763 12.833 4.18198 12.833 4.49575Z" fill="#B0B8BC"/>
</svg>
