<svg width="16" height="18" viewBox="0 0 16 18" fill="none" xmlns="http://www.w3.org/2000/svg">
<path fill-rule="evenodd" clip-rule="evenodd" d="M3.5 2.41662C3.5 3.44724 2.7165 4.28271 1.75 4.28271C0.783502 4.28271 0 3.44724 0 2.41662C0 1.38601 0.783502 0.550537 1.75 0.550537C2.7165 0.550537 3.5 1.38601 3.5 2.41662ZM0 5.88221H3.578V17.6119H0V5.88221ZM13.324 6.01977C13.3113 6.01551 13.2989 6.01112 13.2864 6.00674C13.2616 5.99797 13.2367 5.9892 13.21 5.98138C13.162 5.96965 13.114 5.96006 13.065 5.95153C12.875 5.911 12.667 5.88221 12.423 5.88221C10.337 5.88221 9.014 7.49984 8.578 8.12472V5.88221H5V17.6119H8.578V11.2139C8.578 11.2139 11.282 7.19807 12.423 10.1476V17.6119H16V9.6965C16 7.92425 14.861 6.44737 13.324 6.01977Z" fill="#B0B8BC"/>
</svg>
