<svg width="500" height="539" viewBox="0 0 500 539" fill="none" xmlns="http://www.w3.org/2000/svg">
<path d="M500 412.376H0V412.645H500V412.376Z" fill="#E6E6E6"/>
<path d="M419.79 425.371H385.39V425.64H419.79V425.371Z" fill="#E6E6E6"/>
<path d="M265.89 425.866H255.61V426.135H265.89V425.866Z" fill="#E6E6E6"/>
<path d="M374.94 421.538H355.58V421.807H374.94V421.538Z" fill="#E6E6E6"/>
<path d="M98.12 422.173H72.44V422.442H98.12V422.173Z" fill="#E6E6E6"/>
<path d="M71.44 425.995H53.9V426.264H71.44V425.995Z" fill="#E6E6E6"/>
<path d="M228.12 419.449H134.44V419.718H228.12V419.449Z" fill="#E6E6E6"/>
<path d="M237 364.358H43.91C42.3973 364.355 40.9475 363.706 39.8789 362.554C38.8102 361.401 38.21 359.839 38.21 358.211V65.9806C38.2232 64.3613 38.8292 62.8131 39.8964 61.6721C40.9637 60.5312 42.406 59.8896 43.91 59.8868H237C238.514 59.8868 239.967 60.5345 241.038 61.6874C242.108 62.8403 242.71 64.404 242.71 66.0344V358.211C242.71 359.841 242.108 361.405 241.038 362.558C239.967 363.71 238.514 364.358 237 364.358ZM43.91 60.1022C42.4636 60.105 41.0774 60.7256 40.0557 61.8277C39.0339 62.9298 38.46 64.4234 38.46 65.9806V358.211C38.46 359.768 39.0339 361.261 40.0557 362.363C41.0774 363.466 42.4636 364.086 43.91 364.089H237C238.447 364.086 239.835 363.466 240.858 362.364C241.881 361.262 242.457 359.769 242.46 358.211V65.9806C242.457 64.4224 241.881 62.9289 240.858 61.8271C239.835 60.7253 238.447 60.105 237 60.1022H43.91Z" fill="#E6E6E6"/>
<path d="M453.31 364.358H260.21C258.696 364.355 257.246 363.707 256.175 362.554C255.105 361.402 254.503 359.84 254.5 358.211V65.9806C254.516 64.3604 255.124 62.8121 256.193 61.6715C257.262 60.5308 258.705 59.8896 260.21 59.8868H453.31C454.812 59.8924 456.252 60.5352 457.317 61.6759C458.382 62.8166 458.987 64.3632 459 65.9806V358.211C459 359.837 458.401 361.398 457.335 362.55C456.268 363.702 454.821 364.352 453.31 364.358ZM260.21 60.1022C258.763 60.105 257.375 60.7253 256.352 61.8271C255.329 62.9289 254.753 64.4224 254.75 65.9806V358.211C254.753 359.769 255.329 361.262 256.352 362.364C257.375 363.466 258.763 364.086 260.21 364.089H453.31C454.757 364.086 456.145 363.466 457.168 362.364C458.191 361.262 458.767 359.769 458.77 358.211V65.9806C458.767 64.4224 458.191 62.9289 457.168 61.8271C456.145 60.7253 454.757 60.105 453.31 60.1022H260.21Z" fill="#E6E6E6"/>
<path d="M287.29 279.175L289.52 277.915L291.74 279.175V412.376H287.29V279.175Z" fill="#F0F0F0"/>
<path d="M312.99 279.175L315.22 277.915L317.44 279.175V412.376H312.99V279.175Z" fill="#F0F0F0"/>
<path d="M338.69 279.175L340.92 277.915L343.14 279.175V412.376H338.69V279.175Z" fill="#F0F0F0"/>
<path d="M364.39 279.175L366.62 277.915L368.84 279.175V412.376H364.39V279.175Z" fill="#F0F0F0"/>
<path d="M390.1 279.175L392.32 277.915L394.55 279.175V412.376H390.1V279.175Z" fill="#F0F0F0"/>
<path d="M415.8 279.175L418.02 277.915L420.25 279.175V412.376H415.8V279.175Z" fill="#F0F0F0"/>
<path d="M441.5 279.175L443.72 277.915L445.95 279.175V412.376H441.5V279.175Z" fill="#F0F0F0"/>
<path d="M289.52 300.546H443.72V296.24H289.52V300.546Z" fill="#F0F0F0"/>
<path d="M289.52 390.983H443.72V386.677H289.52V390.983Z" fill="#F0F0F0"/>
<path d="M232.38 105.924H122.62V367.287H232.38V105.924Z" fill="#EBEBEB"/>
<path d="M232.39 105.924H127.83V367.287H232.39V105.924Z" fill="#FAFAFA"/>
<path d="M226.89 361.354V111.856H133.34V361.354H226.89Z" fill="#FAFAFA"/>
<path d="M219.08 154.738V127.489H141.13V154.738H219.08Z" fill="#EBEBEB"/>
<path d="M219.08 345.84V286.238H141.13V345.84H219.08Z" fill="#EBEBEB"/>
<path d="M141.13 278.551H176.35V162.221H141.13V278.551Z" fill="#EBEBEB"/>
<path d="M183.86 278.551H219.08V162.221H183.86V278.551Z" fill="#EBEBEB"/>
<path d="M226.88 361.354V111.856H225.45V361.354H226.88Z" fill="#F0F0F0"/>
<path d="M219.08 225.796C219.08 226.794 218.805 227.771 218.29 228.601C217.774 229.431 217.042 230.079 216.185 230.461C215.328 230.843 214.385 230.943 213.475 230.748C212.565 230.553 211.73 230.072 211.074 229.366C210.418 228.66 209.971 227.76 209.79 226.781C209.609 225.801 209.702 224.786 210.057 223.863C210.412 222.941 211.013 222.152 211.784 221.597C212.556 221.042 213.462 220.746 214.39 220.746C215.633 220.749 216.824 221.282 217.703 222.228C218.582 223.175 219.077 224.457 219.08 225.796Z" fill="#E0E0E0"/>
<path d="M220.92 224.751C220.922 225.753 220.648 226.733 220.132 227.567C219.616 228.4 218.882 229.051 218.023 229.435C217.164 229.819 216.218 229.92 215.306 229.726C214.393 229.531 213.555 229.049 212.897 228.34C212.239 227.632 211.791 226.729 211.61 225.747C211.429 224.764 211.523 223.746 211.88 222.821C212.237 221.896 212.841 221.105 213.615 220.55C214.39 219.995 215.3 219.7 216.23 219.702C217.474 219.702 218.667 220.234 219.546 221.181C220.426 222.128 220.92 223.412 220.92 224.751Z" fill="#FAFAFA"/>
<path d="M143.56 367.287H122.62V389.831H143.56V367.287Z" fill="#EBEBEB"/>
<path d="M143.56 389.82H253.37V367.276H143.56V389.82Z" fill="#FAFAFA"/>
<path d="M164.5 389.831H122.62V412.376H164.5V389.831Z" fill="#EBEBEB"/>
<path d="M164.5 412.376H274.31V389.831H164.5V412.376Z" fill="#FAFAFA"/>
<path d="M315.25 105.924H265.89V245.412H315.25V105.924Z" fill="#E0E0E0"/>
<path d="M318.26 105.924H268.9V245.412H318.26V105.924Z" fill="#F5F5F5"/>
<path d="M312.85 238.855V112.459H274.32V238.855H312.85Z" fill="white"/>
<path d="M312.85 238.866V112.469H310.57V238.866H312.85Z" fill="#E0E0E0"/>
<path d="M316.02 199.58H271.14V208.365H316.02V199.58Z" fill="#F5F5F5"/>
<path d="M381.8 105.924H332.44V245.412H381.8V105.924Z" fill="#E0E0E0"/>
<path d="M384.81 105.924H335.45V245.412H384.81V105.924Z" fill="#F5F5F5"/>
<path d="M379.4 238.855V112.459H340.87V238.855H379.4Z" fill="white"/>
<path d="M379.4 238.866V112.469H377.12V238.866H379.4Z" fill="#E0E0E0"/>
<path d="M382.57 199.58H337.69V208.365H382.57V199.58Z" fill="#F5F5F5"/>
<path d="M448.34 105.924H398.98V245.412H448.34V105.924Z" fill="#E0E0E0"/>
<path d="M451.36 105.924H402V245.412H451.36V105.924Z" fill="#F5F5F5"/>
<path d="M445.95 238.866V112.47H407.42V238.866H445.95Z" fill="white"/>
<path d="M445.94 238.866V112.469H443.66V238.866H445.94Z" fill="#E0E0E0"/>
<path d="M449.12 199.58H404.24V208.365H449.12V199.58Z" fill="#F5F5F5"/>
<path d="M103.26 105.924H53.9V245.412H103.26V105.924Z" fill="#E0E0E0"/>
<path d="M106.28 105.924H56.92V245.412H106.28V105.924Z" fill="#F5F5F5"/>
<path d="M100.87 238.866L100.87 112.469H62.34L62.34 238.866H100.87Z" fill="white"/>
<path d="M100.86 238.866L100.86 112.469H98.58V238.866H100.86Z" fill="#E0E0E0"/>
<path d="M104.04 199.58H59.16V208.365H104.04V199.58Z" fill="#F5F5F5"/>
<path d="M122.63 80.8812V94.8774H131L122.63 80.8812Z" fill="#EBEBEB"/>
<path d="M232.39 80.8812H122.63L131 94.8774H240.76L232.39 80.8812Z" fill="#FAFAFA"/>
<path d="M250 460.997C357.082 460.997 443.89 455.54 443.89 448.809C443.89 442.078 357.082 436.622 250 436.622C142.917 436.622 56.11 442.078 56.11 448.809C56.11 455.54 142.917 460.997 250 460.997Z" fill="#F5F5F5"/>
<path d="M254.87 429.236L338.15 433.133L326.14 140.214L242.85 136.317L254.87 429.236Z" fill="#80BAF0"/>
<path opacity="0.6" d="M254.87 429.236L338.15 433.133L326.14 140.214L242.85 136.317L254.87 429.236Z" fill="black"/>
<path d="M172.42 445.676L254.87 429.236L242.85 136.317L160.4 152.757L172.42 445.676Z" fill="#80BAF0"/>
<path opacity="0.6" d="M172.42 445.676L254.87 429.236L242.85 136.317L160.4 152.757L172.42 445.676Z" fill="black"/>
<path d="M89.13 441.779L172.42 445.676L160.4 152.757L77.11 148.86L89.13 441.779Z" fill="#80BAF0"/>
<path opacity="0.6" d="M89.13 441.779L172.42 445.676L160.4 152.757L77.11 148.86L89.13 441.779Z" fill="black"/>
<path d="M116.084 145.272L116.044 146.272L132.668 147.05L132.708 146.05L116.084 145.272Z" fill="#80BAF0"/>
<path d="M78.6008 277.908L77.6717 277.952L77.9542 284.836L78.8833 284.791L78.6008 277.908Z" fill="#80BAF0"/>
<path d="M79.1106 289.869L78.1815 289.913L78.8171 305.401L79.7462 305.357L79.1106 289.869Z" fill="#80BAF0"/>
<path opacity="0.6" d="M125.12 246.898C137.43 246.898 147.41 236.153 147.41 222.9C147.41 209.646 137.43 198.901 125.12 198.901C112.81 198.901 102.83 209.646 102.83 222.9C102.83 236.153 112.81 246.898 125.12 246.898Z" fill="#80BAF0"/>
<path opacity="0.2" d="M237.49 341.649C243.283 334.767 242.796 324.132 236.404 317.895C230.011 311.659 220.133 312.183 214.34 319.066C208.548 325.948 209.034 336.583 215.427 342.82C221.82 349.056 231.698 348.532 237.49 341.649Z" fill="#80BAF0"/>
<path d="M331.49 339.208L278.74 309.665L299 244.357L321.3 264.005L329.02 253.853L248.57 182.967L193.89 145.856L187.39 156.945L218.53 178.079L160.17 236.594L84.31 297.015L91.55 307.512L114.26 289.425L141.44 439.475L153.39 436.966L125.11 280.822L143.97 265.749L162.7 279.746L247.3 306.737L263.72 315.953L246.3 354.679L222 426.329L233.44 430.829L257.55 359.772L274.55 322.014L325.88 350.803L331.49 339.208ZM168 267.795L154.28 257.556L167.64 246.919L167.91 246.693L229.14 185.325L241.39 193.647L288.87 235.475L267.77 303.496L251.89 294.592L168 267.795Z" fill="#80BAF0"/>
<g style="mix-blend-mode:multiply" opacity="0.3">
<path d="M173.2 445.676L255.65 429.236L243.63 136.317L161.18 152.757L173.2 445.676Z" fill="#263238"/>
</g>
<path opacity="0.1" d="M125.12 246.898C137.43 246.898 147.41 236.153 147.41 222.9C147.41 209.646 137.43 198.901 125.12 198.901C112.81 198.901 102.83 209.646 102.83 222.9C102.83 236.153 112.81 246.898 125.12 246.898Z" fill="black"/>
<path opacity="0.7" d="M331.49 339.208L278.74 309.665L299 244.357L321.3 264.005L329.02 253.853L248.57 182.967L193.89 145.856L187.39 156.945L218.53 178.079L160.17 236.594L84.31 297.015L91.55 307.512L114.26 289.425L141.44 439.475L153.39 436.966L125.11 280.822L143.97 265.749L162.7 279.746L247.3 306.737L263.72 315.953L246.3 354.679L222 426.329L233.44 430.829L257.55 359.772L274.55 322.014L325.88 350.803L331.49 339.208ZM168 267.795L154.28 257.556L167.64 246.919L167.91 246.693L229.14 185.325L241.39 193.647L288.87 235.475L267.77 303.496L251.89 294.592L168 267.795Z" fill="black"/>
<path d="M327.54 140.634L242.73 136.672L160.27 153.102L75.55 149.14L87.72 445.87L172.54 449.843L255 433.402L339.73 437.375L327.54 140.634ZM255.54 420.321L254.16 420.257L252.8 420.537L171.71 436.686L99.4 433.295L88.3 162.845L159.74 166.183L161.13 166.247L162.49 165.978L243.58 149.829L315.87 153.209L327 423.648L255.54 420.321Z" fill="#80BAF0"/>
<path opacity="0.7" d="M327.54 140.634L242.73 136.672L160.27 153.102L75.55 149.14L87.72 445.87L172.54 449.843L255 433.402L339.73 437.375L327.54 140.634ZM255.54 420.321L254.16 420.257L252.8 420.537L171.71 436.686L99.4 433.295L88.3 162.845L159.74 166.183L161.13 166.247L162.49 165.978L243.58 149.829L315.87 153.209L327 423.648L255.54 420.321Z" fill="black"/>
<path opacity="0.7" d="M116.084 145.272L116.044 146.272L132.668 147.05L132.708 146.05L116.084 145.272Z" fill="black"/>
<path opacity="0.7" d="M78.6008 277.908L77.6717 277.952L77.9542 284.836L78.8833 284.791L78.6008 277.908Z" fill="black"/>
<path opacity="0.7" d="M79.1106 289.869L78.1815 289.913L78.8171 305.401L79.7462 305.357L79.1106 289.869Z" fill="black"/>
<path d="M370.55 200.215C363.091 193.406 353.567 189.789 343.791 190.051C334.016 190.314 324.671 194.438 317.537 201.639C310.403 208.839 305.978 218.613 305.104 229.099C304.231 239.586 306.97 250.051 312.8 258.504L312.26 274.363L326.7 271.133C335.406 275.922 345.443 277.097 354.901 274.435C364.36 271.774 372.579 265.461 377.995 256.698C383.41 247.935 385.644 237.335 384.272 226.913C382.899 216.492 378.015 206.979 370.55 200.183V200.215Z" fill="#80BAF0"/>
<path d="M347.328 265.263C363.888 263.759 376.18 248.088 374.784 230.259C373.387 212.431 358.831 199.197 342.272 200.7C325.712 202.203 313.42 217.875 314.816 235.703C316.213 253.532 330.769 266.766 347.328 265.263Z" fill="#80BAF0"/>
<path opacity="0.3" d="M347.328 265.263C363.888 263.759 376.18 248.088 374.784 230.259C373.387 212.431 358.831 199.197 342.272 200.7C325.712 202.203 313.42 217.875 314.816 235.703C316.213 253.532 330.769 266.766 347.328 265.263Z" fill="black"/>
<path d="M361.98 443.157H354.64L353.91 424.843H361.25L361.98 443.157Z" fill="#E4897B"/>
<path d="M399.71 204.543C400.35 205.9 400.88 207.105 401.39 208.397C401.9 209.689 402.39 210.949 402.9 212.23C403.9 214.803 404.74 217.42 405.52 220.079C406.3 222.738 407.03 225.462 407.59 228.218C407.9 229.585 408.12 231.007 408.38 232.417C408.64 233.827 408.79 235.259 408.9 236.724L409 237.8V238.08V238.489C409.03 238.901 409.03 239.315 409 239.727C408.883 241.263 408.412 242.743 407.63 244.034C406.513 245.794 405.022 247.241 403.28 248.254C400.766 249.726 398.073 250.813 395.28 251.484C390.221 252.762 385.046 253.43 379.85 253.476L379.15 247.587C383.749 246.297 388.279 244.737 392.72 242.914C394.674 242.107 396.534 241.056 398.26 239.781C398.93 239.254 399.38 238.618 399.26 238.597C399.131 238.76 399.054 238.964 399.04 239.178C399.036 239.257 399.036 239.336 399.04 239.415C399.04 239.415 399.04 239.48 399.04 239.415V239.307V239.081L398.88 238.199C397.982 233.327 396.718 228.541 395.1 223.89C394.3 221.5 393.43 219.121 392.54 216.752C391.65 214.383 390.67 211.983 389.77 209.808L399.71 204.543Z" fill="#E4897B"/>
<path d="M398.41 198.772C404.79 202.002 408.41 223.642 408.41 223.642L392.84 230.328C390.567 224.336 388.728 218.162 387.34 211.864C385.2 201.895 391.9 195.435 398.41 198.772Z" fill="#80BAF0"/>
<path opacity="0.7" d="M398.41 198.772C404.79 202.002 408.41 223.642 408.41 223.642L392.84 230.328C390.567 224.336 388.728 218.162 387.34 211.864C385.2 201.895 391.9 195.435 398.41 198.772Z" fill="white"/>
<path d="M417.14 443.157H409.79L404.73 424.843H412.08L417.14 443.157Z" fill="#E4897B"/>
<path d="M353.91 424.843L354.28 434.285H361.63L361.26 424.843H353.91Z" fill="#CE6F64"/>
<path d="M412.08 424.843H404.73L407.34 434.285H414.69L412.08 424.843Z" fill="#CE6F64"/>
<path d="M369.43 266.988C369.43 266.988 363.34 322.585 367.91 345.194C372.91 369.957 404.44 432.466 404.44 432.466H417.9C417.9 432.466 392.81 371.991 389.95 347.412C386.85 320.765 394.79 288.585 394.79 266.977L369.43 266.988Z" fill="#80BAF0"/>
<path opacity="0.6" d="M369.43 266.988C369.43 266.988 363.34 322.585 367.91 345.194C372.91 369.957 404.44 432.466 404.44 432.466H417.9C417.9 432.466 392.81 371.991 389.95 347.412C386.85 320.765 394.79 288.585 394.79 266.977L369.43 266.988Z" fill="black"/>
<path d="M380.61 247.221L375.48 245.24L375.64 255.349C375.64 255.349 379.79 255.64 382.09 252.733L380.61 247.221Z" fill="#E4897B"/>
<path d="M369 244.874L369.5 253.218L375.64 255.338L375.48 245.24L369 244.874Z" fill="#E4897B"/>
<path d="M361.13 175.086C361.25 175.711 361.04 176.281 360.66 176.368C360.28 176.454 359.88 176.012 359.76 175.388C359.64 174.763 359.85 174.182 360.23 174.107C360.61 174.031 361 174.43 361.13 175.086Z" fill="#263238"/>
<path d="M361.09 176.238C360.752 178.301 360.154 180.305 359.31 182.192C359.761 182.418 360.253 182.534 360.75 182.534C361.247 182.534 361.739 182.418 362.19 182.192L361.09 176.238Z" fill="#DE5753"/>
<path d="M359.63 171.221C359.572 171.22 359.516 171.203 359.466 171.173C359.415 171.143 359.372 171.101 359.34 171.049C359.315 171.008 359.297 170.961 359.289 170.912C359.281 170.864 359.282 170.814 359.292 170.765C359.302 170.717 359.322 170.671 359.349 170.631C359.376 170.591 359.41 170.558 359.45 170.532C359.932 170.243 360.472 170.084 361.024 170.067C361.576 170.05 362.123 170.176 362.62 170.435C362.703 170.477 362.767 170.553 362.799 170.646C362.831 170.738 362.828 170.841 362.79 170.931C362.772 170.976 362.745 171.017 362.712 171.05C362.679 171.084 362.639 171.111 362.596 171.128C362.553 171.145 362.508 171.152 362.462 171.15C362.416 171.147 362.371 171.135 362.33 171.114C361.938 170.907 361.506 170.803 361.069 170.813C360.632 170.822 360.204 170.944 359.82 171.167C359.762 171.202 359.696 171.22 359.63 171.221Z" fill="#263238"/>
<path d="M382.28 176.163C381.22 181.945 380.17 192.549 383.93 196.414C383.93 196.414 382.46 202.282 372.48 202.282C361.48 202.282 367.23 196.414 367.23 196.414C373.23 194.864 373.07 190.084 372.02 185.584L382.28 176.163Z" fill="#E4897B"/>
<path d="M365.06 197.513L366.28 195.155C366.28 195.155 385.28 191.419 385.81 195.575C385.861 196.452 385.776 197.333 385.56 198.18L365.06 197.513Z" fill="#80BAF0"/>
<path d="M406.71 443.566C406.397 443.61 406.079 443.586 405.775 443.495C405.471 443.404 405.187 443.249 404.94 443.038C404.851 442.911 404.802 442.756 404.802 442.597C404.802 442.438 404.851 442.283 404.94 442.155C404.995 442.044 405.072 441.947 405.165 441.871C405.258 441.795 405.366 441.741 405.48 441.714C406.56 441.434 408.58 442.941 408.67 443.006C408.699 443.026 408.721 443.054 408.734 443.088C408.748 443.122 408.751 443.159 408.745 443.195C408.739 443.231 408.722 443.264 408.698 443.29C408.674 443.315 408.643 443.333 408.61 443.34C407.986 443.485 407.349 443.561 406.71 443.566ZM405.79 442.059C405.717 442.047 405.643 442.047 405.57 442.059C405.503 442.073 405.44 442.103 405.385 442.145C405.33 442.188 405.284 442.243 405.25 442.306C405.09 442.618 405.19 442.748 405.25 442.791C405.56 443.232 407.06 443.243 408.16 443.049C407.446 442.544 406.636 442.216 405.79 442.091V442.059Z" fill="#80BAF0"/>
<path d="M408.58 443.351C408.554 443.361 408.526 443.361 408.5 443.351C407.74 442.909 406.27 441.197 406.42 440.293C406.448 440.155 406.518 440.032 406.62 439.944C406.722 439.856 406.849 439.808 406.98 439.808C407.112 439.793 407.245 439.806 407.372 439.847C407.499 439.888 407.617 439.955 407.72 440.045C408.57 440.799 408.72 443.081 408.72 443.178C408.724 443.212 408.719 443.247 408.704 443.278C408.69 443.308 408.668 443.334 408.64 443.351C408.62 443.355 408.6 443.355 408.58 443.351ZM407.1 440.121H407C406.77 440.121 406.75 440.261 406.74 440.314C406.65 440.831 407.59 442.145 408.34 442.758C408.289 441.859 407.99 440.997 407.48 440.282C407.371 440.193 407.237 440.144 407.1 440.142V440.121Z" fill="#80BAF0"/>
<path d="M351.69 443.566C350.74 443.566 349.83 443.426 349.53 442.963C349.452 442.843 349.41 442.7 349.41 442.554C349.41 442.407 349.452 442.264 349.53 442.145C349.591 442.037 349.67 441.944 349.765 441.87C349.859 441.796 349.966 441.743 350.08 441.714C351.31 441.348 353.87 442.931 353.98 442.995C354.012 443.013 354.038 443.041 354.055 443.076C354.071 443.111 354.076 443.151 354.07 443.189C354.064 443.227 354.048 443.262 354.023 443.289C353.997 443.316 353.965 443.334 353.93 443.34C353.191 443.484 352.441 443.56 351.69 443.566ZM350.52 442.026C350.41 442.014 350.3 442.014 350.19 442.026C350.118 442.044 350.05 442.076 349.99 442.122C349.929 442.169 349.879 442.228 349.84 442.295C349.72 442.522 349.77 442.64 349.84 442.705C350.18 443.221 352.04 443.232 353.41 443.017C352.515 442.489 351.534 442.153 350.52 442.026Z" fill="#80BAF0"/>
<path d="M353.91 443.351H353.83C352.95 442.92 351.19 441.197 351.33 440.315C351.33 440.11 351.5 439.841 351.97 439.798C352.148 439.771 352.33 439.786 352.503 439.841C352.675 439.897 352.835 439.992 352.97 440.121C353.9 440.939 354.1 443.071 354.11 443.157C354.113 443.19 354.108 443.223 354.096 443.253C354.083 443.283 354.064 443.309 354.04 443.329C354 443.351 353.954 443.359 353.91 443.351ZM352.11 440.121H352C351.69 440.121 351.67 440.293 351.66 440.336C351.58 440.874 352.77 442.209 353.66 442.802C353.564 441.897 353.215 441.045 352.66 440.358C352.501 440.228 352.309 440.153 352.11 440.142V440.121Z" fill="#80BAF0"/>
<path d="M407.09 443.168H417C417.164 443.161 417.326 443.212 417.462 443.313C417.597 443.414 417.698 443.559 417.75 443.727L419.48 450.973C419.509 451.164 419.497 451.36 419.444 451.544C419.39 451.729 419.298 451.898 419.174 452.038C419.05 452.178 418.897 452.285 418.728 452.35C418.559 452.416 418.378 452.438 418.2 452.416C414.75 452.416 413.07 452.179 408.73 452.179C406.06 452.179 400.55 452.437 396.87 452.437C393.19 452.437 392.69 449.057 394.2 448.745C400.98 447.366 403.53 445.515 405.7 443.674C406.099 443.345 406.588 443.168 407.09 443.168Z" fill="#263238"/>
<path d="M354.69 442.242H362.69C362.835 442.241 362.976 442.294 363.089 442.392C363.202 442.49 363.28 442.627 363.31 442.78L364.77 449.81C364.806 449.981 364.806 450.158 364.77 450.328C364.733 450.499 364.661 450.658 364.559 450.794C364.457 450.929 364.327 451.039 364.18 451.113C364.033 451.187 363.872 451.224 363.71 451.221C360.81 451.167 356.63 450.984 353 450.984C348.74 450.984 345.07 451.232 340.08 451.232C337.08 451.232 336.23 447.948 337.49 447.657C343.24 446.301 347.93 446.161 352.9 442.855C353.432 442.474 354.052 442.262 354.69 442.242Z" fill="#263238"/>
<path d="M364.45 210.206C360.98 214.588 357.45 218.819 353.85 223.126C350.25 227.432 346.57 231.523 342.8 235.647L340 238.683L339.57 239.135C339.329 239.39 339.075 239.631 338.81 239.857C338.319 240.267 337.793 240.628 337.24 240.933C336.293 241.469 335.284 241.867 334.24 242.117C331.082 242.803 327.833 242.847 324.66 242.247C319.116 241.274 313.713 239.526 308.59 237.047L310.23 231.373C315.231 232.26 320.283 232.771 325.35 232.902C326.506 232.908 327.661 232.847 328.81 232.718C329.762 232.626 330.699 232.406 331.6 232.062C331.859 231.956 332.104 231.815 332.33 231.642C332.38 231.588 332.41 231.556 332.4 231.534L332.5 231.416L332.66 231.211L335.24 227.981L345.6 215.062C349.07 210.755 352.6 206.449 356.1 202.25L364.45 210.206Z" fill="#E4897B"/>
<path opacity="0.2" d="M391.94 213.005L387.3 211.929C388.688 218.227 390.527 224.4 392.8 230.393L399.23 227.626C397.91 223.912 394.57 218.453 391.94 213.005Z" fill="#80BAF0"/>
<path d="M352.5 216.655C352.29 220.811 352.25 225.882 352.5 232.062L359.33 214.125L352.5 216.655Z" fill="#80BAF0"/>
<path d="M311.22 231.933L305.63 226.151L302.55 235.841C302.55 235.841 304.69 238.705 309.86 237.208L311.22 231.933Z" fill="#E4897B"/>
<path d="M301.39 224.148L299.22 232.622L302.55 235.862L305.63 226.151L301.39 224.148Z" fill="#E4897B"/>
<path d="M380.26 169.531C381.26 177.315 382.21 181.805 379.34 186.531C375.03 193.637 365.57 192.022 362.43 184.722C359.61 178.155 358.43 166.538 364.87 161.973C366.279 160.958 367.905 160.348 369.595 160.201C371.284 160.053 372.981 160.373 374.523 161.131C376.065 161.888 377.402 163.057 378.406 164.528C379.41 165.998 380.048 167.72 380.26 169.531Z" fill="#E4897B"/>
<path d="M388.22 165.397C388.32 160.369 384.98 156.708 383.28 157.247C381.28 148.235 366.98 152.811 366.98 152.811C366.98 152.811 370.31 147.697 363.85 147.675C357.39 147.654 359.2 153.22 359.2 153.22C359.2 153.22 355.27 149.075 352.71 153.565C350.15 158.054 355.71 159.615 355.71 159.615C355.71 159.615 351.07 158.463 350.46 164.998C349.85 171.534 358.11 166.323 358.11 166.323C359.51 169.1 361.16 169.649 362.76 169.423C363.607 169.319 364.461 169.537 365.174 170.038C365.888 170.539 366.417 171.293 366.67 172.169C368.98 179.705 373.4 186.499 379.99 184.421C385.26 182.741 388.07 172.75 388.22 165.397Z" fill="#263238"/>
<path d="M371 172.858C371.221 174.796 370.845 176.759 369.93 178.446C368.7 180.599 366.85 179.834 366.15 177.627C365.52 175.636 365.4 172.104 367.15 170.661C368.9 169.219 370.71 170.532 371 172.858Z" fill="#E4897B"/>
<path opacity="0.3" d="M373.11 286.098C371.89 282.243 369.62 286.227 367.26 292.655C366.43 305.402 365.82 320.647 366.5 332.813C369.23 317.815 375.8 294.592 373.11 286.098Z" fill="black"/>
<path d="M355.5 266.988C355.5 266.988 339.5 316.631 340.28 340.758C341.11 365.844 351.55 432.455 351.55 432.455H364C364 432.455 362.16 367.308 362.71 342.664C363.32 315.802 381.33 266.988 381.33 266.988H355.5Z" fill="#80BAF0"/>
<path opacity="0.6" d="M355.5 266.988C355.5 266.988 339.5 316.631 340.28 340.758C341.11 365.844 351.55 432.455 351.55 432.455H364C364 432.455 362.16 367.308 362.71 342.664C363.32 315.802 381.33 266.988 381.33 266.988H355.5Z" fill="black"/>
<path d="M400.83 427.373C400.77 427.373 403.68 432.681 403.68 432.681H418.82L417.33 427.373H400.83Z" fill="#80BAF0"/>
<path d="M349.15 427.126C349.09 427.126 349.85 432.681 349.85 432.681H365L365.41 427.718L349.15 427.126Z" fill="#80BAF0"/>
<path d="M355.93 198.622C355.93 198.622 348.11 208.139 355.5 266.988H394.79C395.06 260.528 391.27 228.821 397.09 198.223C392.745 197.317 388.348 196.72 383.93 196.436C378.368 196.08 372.792 196.08 367.23 196.436C363.417 196.849 359.639 197.58 355.93 198.622Z" fill="#80BAF0"/>
<path opacity="0.7" d="M355.93 198.622C355.93 198.622 348.11 208.139 355.5 266.988H394.79C395.06 260.528 391.27 228.821 397.09 198.223C392.745 197.317 388.348 196.72 383.93 196.436C378.368 196.08 372.792 196.08 367.23 196.436C363.417 196.849 359.639 197.58 355.93 198.622Z" fill="white"/>
<path d="M363.76 205.62C363.67 213.156 349.92 231.599 349.92 231.599L336.58 220.736C336.58 220.736 340.82 210.357 347.58 203.8C356.19 195.392 363.86 196.77 363.76 205.62Z" fill="#80BAF0"/>
<path opacity="0.7" d="M363.76 205.62C363.67 213.156 349.92 231.599 349.92 231.599L336.58 220.736C336.58 220.736 340.82 210.357 347.58 203.8C356.19 195.392 363.86 196.77 363.76 205.62Z" fill="white"/>
</svg>
