<svg xmlns="http://www.w3.org/2000/svg" preserveAspectRatio="xMidYMid meet" viewBox="0 0 1390 1171" fill="none">
    <path opacity="0.5" d="M318.343 72.3419C198.405 176.266 179.819 372.779 98.5892 517.753C70.3124 568.199 33.7749 613.347 14.7119 669.31C-29.0536 797.405 31.1802 942.707 111.801 1044.45C150.245 1092.98 195.149 1137.45 249.478 1157.9C291.258 1173.63 336.056 1174.28 380.033 1174.7L2319.5 1182.9C2405.52 1183.8 2501.1 1180.54 2562.95 1111.88C2605.57 1064.6 2622.89 995.557 2637.58 929.652C2655.64 848.67 2672 760.725 2643.91 683.594C2611.82 595.348 2530.67 545.339 2480.26 469.192C2398.45 345.822 2400.33 159.222 2296.14 60.7342C2247.51 14.7673 2183.33 -3.25883 2120.79 -12.2719C2002.89 -29.2876 722.215 2.83182 606.433 -1.64739C507.464 -5.47114 400.447 1.19308 318.343 72.3419Z" fill="#1B7925"/>
</svg>