<svg xmlns="http://www.w3.org/2000/svg" width="1069" height="1159" viewBox="0 0 1069 1159" fill="none">
    <path opacity="0.5" d="M-781.341 86.5449C-901.398 186.894 -920.003 376.648 -1001.31 516.635C-1029.62 565.346 -1066.19 608.941 -1085.27 662.979C-1129.08 786.668 -1068.79 926.972 -988.088 1025.21C-949.606 1072.08 -904.658 1115.01 -850.275 1134.77C-808.453 1149.96 -763.611 1150.59 -719.59 1150.98L729.129 1158.9C815.236 1159.77 910.91 1156.63 972.821 1090.33C1015.49 1044.68 1032.82 978.004 1047.53 914.366C1065.61 836.17 1081.98 751.249 1053.87 676.772C1021.74 591.561 940.514 543.272 890.053 469.744C808.16 350.617 810.041 170.437 705.753 75.3364C657.068 30.9507 592.826 13.5445 530.226 4.84142C412.21 -11.5889 300.422 19.4257 184.526 15.1005C85.4589 11.4083 -699.156 17.8433 -781.341 86.5449Z" fill="#DC6F6F"/>
</svg>