<svg width="16" height="18" viewBox="0 0 16 18" fill="none" xmlns="http://www.w3.org/2000/svg">
<path d="M16 3.6135C15.405 3.89182 14.771 4.07629 14.11 4.16586C14.79 3.73293 15.309 3.05261 15.553 2.2326C14.919 2.63567 14.219 2.92038 13.473 3.07927C12.871 2.39575 12.013 1.97241 11.077 1.97241C9.261 1.97241 7.799 3.54419 7.799 5.47106C7.799 5.74831 7.821 6.01489 7.875 6.26868C5.148 6.12685 2.735 4.73315 1.114 2.61008C0.831 3.13365 0.665 3.73293 0.665 4.37806C0.665 5.58942 1.25 6.66322 2.122 7.28489C1.595 7.27423 1.078 7.11108 0.64 6.8541C0.64 6.86476 0.64 6.87862 0.64 6.89248C0.64 8.59222 1.777 10.0041 3.268 10.3293C3.001 10.4071 2.71 10.4444 2.408 10.4444C2.198 10.4444 1.986 10.4317 1.787 10.3847C2.212 11.7699 3.418 12.7883 4.852 12.8213C3.736 13.7522 2.319 14.3131 0.785 14.3131C0.516 14.3131 0.258 14.3003 0 14.2651C1.453 15.2643 3.175 15.8348 5.032 15.8348C11.068 15.8348 14.368 10.5031 14.368 5.8816C14.368 5.72698 14.363 5.57769 14.356 5.42947C15.007 4.93682 15.554 4.32155 16 3.6135Z" fill="#B0B8BC"/>
</svg>
