<svg width="16" height="18" viewBox="0 0 16 18" fill="none" xmlns="http://www.w3.org/2000/svg">
<path fill-rule="evenodd" clip-rule="evenodd" d="M13.456 3.49215C14.415 3.54973 14.886 3.70115 15.32 4.52436C15.772 5.3465 16 6.7626 16 9.25675V9.25995V9.26529C16 11.7477 15.772 13.1745 15.321 13.9881C14.887 14.8113 14.416 14.9606 13.457 15.0299C12.498 15.0885 10.089 15.1237 8.002 15.1237C5.911 15.1237 3.501 15.0885 2.543 15.0288C1.586 14.9595 1.115 14.8102 0.677 13.987C0.23 13.1734 0 11.7466 0 9.26422V9.26209V9.25889V9.25569C0 6.7626 0.23 5.3465 0.677 4.52436C1.115 3.70008 1.587 3.54973 2.544 3.49108C3.501 3.42283 5.911 3.39404 8.002 3.39404C10.089 3.39404 12.498 3.42283 13.456 3.49215ZM11 9.25889L6 6.05988V12.4579L11 9.25889Z" fill="#B0B8BC"/>
</svg>
